<svg width="167" height="48" viewBox="0 0 167 48" fill="none" xmlns="http://www.w3.org/2000/svg">
<path d="M0 6.4C0 2.86538 2.95527 0 6.60079 0H160.399C164.045 0 167 2.86538 167 6.4V41.6C167 45.1346 164.045 48 160.399 48H6.60079C2.95527 48 0 45.1346 0 41.6V6.4Z" fill="#414141"/>
<path fill-rule="evenodd" clip-rule="evenodd" d="M0 41.6V6.4C0 2.86538 2.95527 0 6.60079 0H160.399C164.045 0 167 2.86538 167 6.4V41.6C167 45.1346 164.045 48 160.399 48H6.60079C2.95527 48 0 45.1346 0 41.6ZM0.990119 41.6V6.4C0.990119 3.39557 3.5021 0.96 6.60079 0.96H160.399C163.498 0.96 166.01 3.39557 166.01 6.4V41.6C166.01 44.6044 163.498 47.04 160.399 47.04H6.60079C3.5021 47.04 0.990119 44.6044 0.990119 41.6Z" fill="white" fill-opacity="0.3"/>
<path d="M37.7382 24.978C37.7212 22.1647 39.0358 20.0445 41.6906 18.4811C40.2058 16.4186 37.9595 15.2842 34.9984 15.0656C32.1947 14.8511 29.1273 16.6496 28.0041 16.6496C26.8171 16.6496 24.1028 15.1398 21.9671 15.1398C17.5595 15.2058 12.8754 18.5471 12.8754 25.3451C12.8754 27.354 13.2541 29.4288 14.0114 31.5656C15.0239 34.3788 18.6742 41.2717 22.4819 41.1603C24.473 41.115 25.8812 39.7908 28.4721 39.7908C30.9865 39.7908 32.2883 41.1603 34.5091 41.1603C38.3509 41.1067 41.6523 34.8408 42.6138 32.0193C37.4617 29.664 37.7382 25.1223 37.7382 24.978ZM33.2668 12.3967C35.4238 9.91346 35.2281 7.65296 35.1643 6.84033C33.2583 6.94758 31.0545 8.09846 29.7995 9.51333C28.4168 11.0313 27.6042 12.9082 27.7786 15.0243C29.8378 15.177 31.7182 14.1498 33.2668 12.3967Z" fill="white"/>
<path d="M60.9761 34.7354H58.791L57.594 31.0718H53.4336L52.2934 34.7354H50.166L54.288 22.2627H56.8339L60.9761 34.7354ZM57.2332 29.5347L56.1508 26.2778C56.0363 25.9451 55.8217 25.1616 55.5052 23.9281H55.4667C55.3406 24.4586 55.1376 25.2422 54.8586 26.2778L53.7954 29.5347H57.2332Z" fill="white"/>
<path d="M71.5764 30.128C71.5764 31.6576 71.1521 32.8666 70.3035 33.7542C69.5434 34.5443 68.5995 34.9389 67.4727 34.9389C66.2565 34.9389 65.3829 34.5134 64.8508 33.6623H64.8123V38.4001H62.7609V28.7025C62.7609 27.7409 62.735 26.754 62.6849 25.7418H64.489L64.6035 27.1673H64.642C65.3261 26.0932 66.3643 25.5571 67.7575 25.5571C68.8467 25.5571 69.756 25.9761 70.4834 26.8149C71.2127 27.6547 71.5764 28.7587 71.5764 30.128ZM69.4866 30.2011C69.4866 29.3258 69.2845 28.6041 68.8785 28.0361C68.4349 27.4438 67.8393 27.1476 67.0927 27.1476C66.5866 27.1476 66.1266 27.3126 65.7158 27.6378C65.304 27.9658 65.0346 28.3941 64.9085 28.9246C64.845 29.1721 64.8133 29.3745 64.8133 29.5338V31.0334C64.8133 31.6876 65.0192 32.2396 65.431 32.6904C65.8428 33.1412 66.3778 33.3662 67.0359 33.3662C67.8085 33.3662 68.4099 33.0756 68.84 32.4964C69.2711 31.9163 69.4866 31.1515 69.4866 30.2011Z" fill="white"/>
<path d="M82.1964 30.128C82.1964 31.6576 81.7721 32.8666 80.9225 33.7542C80.1633 34.5443 79.2194 34.9389 78.0927 34.9389C76.8765 34.9389 76.0028 34.5134 75.4717 33.6623H75.4332V38.4001H73.3818V28.7025C73.3818 27.7409 73.3559 26.754 73.3058 25.7418H75.1099L75.2244 27.1673H75.2629C75.9461 26.0932 76.9843 25.5571 78.3785 25.5571C79.4667 25.5571 80.3759 25.9761 81.1053 26.8149C81.8317 27.6547 82.1964 28.7587 82.1964 30.128ZM80.1065 30.2011C80.1065 29.3258 79.9035 28.6041 79.4975 28.0361C79.0539 27.4438 78.4602 27.1476 77.7126 27.1476C77.2056 27.1476 76.7466 27.3126 76.3348 27.6378C75.923 27.9658 75.6545 28.3941 75.5285 28.9246C75.4659 29.1721 75.4332 29.3745 75.4332 29.5338V31.0334C75.4332 31.6876 75.6391 32.2396 76.049 32.6904C76.4608 33.1403 76.9958 33.3662 77.6559 33.3662C78.4285 33.3662 79.0298 33.0756 79.4599 32.4964C79.891 31.9163 80.1065 31.1515 80.1065 30.2011Z" fill="white"/>
<path d="M94.0699 31.2378C94.0699 32.2988 93.6917 33.162 92.9326 33.8283C92.0984 34.5566 90.937 34.9202 89.4447 34.9202C88.0668 34.9202 86.9622 34.6615 86.1261 34.1432L86.6014 32.4778C87.502 33.0083 88.4902 33.2744 89.5669 33.2744C90.3395 33.2744 90.9409 33.1038 91.3729 32.7646C91.803 32.4253 92.0175 31.9698 92.0175 31.4018C92.0175 30.8957 91.8405 30.4693 91.4854 30.1234C91.1323 29.7776 90.5425 29.4561 89.7189 29.159C87.477 28.3446 86.357 27.1515 86.357 25.5825C86.357 24.5572 86.7496 23.7165 87.5357 23.0623C88.3189 22.4072 89.3638 22.0801 90.6705 22.0801C91.8357 22.0801 92.8036 22.2778 93.5763 22.6724L93.0634 24.3013C92.3418 23.9189 91.5259 23.7277 90.6128 23.7277C89.8911 23.7277 89.3273 23.9011 88.9232 24.246C88.5816 24.5544 88.4103 24.9302 88.4103 25.3754C88.4103 25.8684 88.6056 26.2761 88.9982 26.5966C89.3398 26.8928 89.9604 27.2133 90.861 27.5592C91.9627 27.9912 92.7719 28.4964 93.2924 29.0756C93.811 29.6529 94.0699 30.3756 94.0699 31.2378Z" fill="white"/>
<path d="M100.852 27.2415H98.5908V31.6081C98.5908 32.7187 98.9892 33.2736 99.7878 33.2736C100.154 33.2736 100.458 33.2427 100.699 33.1808L100.756 34.6982C100.352 34.8453 99.8195 34.9194 99.1604 34.9194C98.3503 34.9194 97.7172 34.6785 97.2601 34.1977C96.805 33.716 96.576 32.9081 96.576 31.7731V27.2397H95.229V25.7401H96.576V24.0934L98.5908 23.501V25.7401H100.852V27.2415Z" fill="white"/>
<path d="M111.054 30.1646C111.054 31.547 110.648 32.682 109.838 33.5696C108.988 34.4834 107.861 34.9389 106.455 34.9389C105.1 34.9389 104.021 34.5012 103.217 33.6258C102.413 32.7504 102.011 31.6454 102.011 30.3136C102.011 28.9199 102.424 27.7784 103.255 26.8908C104.083 26.0023 105.201 25.5581 106.607 25.5581C107.962 25.5581 109.052 25.9958 109.874 26.8721C110.661 27.7222 111.054 28.8197 111.054 30.1646ZM108.926 30.2293C108.926 29.3998 108.744 28.6884 108.375 28.0952C107.945 27.3773 107.33 27.0192 106.534 27.0192C105.709 27.0192 105.083 27.3782 104.653 28.0952C104.284 28.6894 104.102 29.412 104.102 30.2668C104.102 31.0962 104.284 31.8076 104.653 32.3999C105.096 33.1178 105.716 33.4758 106.515 33.4758C107.299 33.4758 107.914 33.1103 108.357 32.3812C108.735 31.7766 108.926 31.0578 108.926 30.2293Z" fill="white"/>
<path d="M117.722 27.4991C117.519 27.4625 117.302 27.4438 117.075 27.4438C116.354 27.4438 115.796 27.709 115.403 28.2404C115.061 28.7091 114.89 29.3014 114.89 30.0165V34.7355H112.84L112.859 28.5741C112.859 27.5375 112.833 26.5937 112.782 25.7427H114.569L114.644 27.4635H114.701C114.917 26.8721 115.259 26.396 115.726 26.0389C116.183 25.7174 116.677 25.5571 117.209 25.5571C117.399 25.5571 117.57 25.5703 117.722 25.5937V27.4991Z" fill="white"/>
<path d="M126.896 29.8132C126.896 30.1712 126.872 30.473 126.821 30.7195H120.667C120.691 31.608 120.988 32.2875 121.559 32.7561C122.078 33.175 122.749 33.385 123.572 33.385C124.484 33.385 125.315 33.2435 126.062 32.9595L126.384 34.3466C125.51 34.7177 124.479 34.9024 123.288 34.9024C121.857 34.9024 120.733 34.4919 119.915 33.6718C119.099 32.8517 118.69 31.7504 118.69 30.369C118.69 29.0128 119.07 27.8834 119.831 26.9827C120.628 26.0211 121.705 25.5403 123.06 25.5403C124.39 25.5403 125.398 26.0211 126.082 26.9827C126.623 27.7466 126.896 28.6913 126.896 29.8132ZM124.94 29.2949C124.953 28.7026 124.819 28.1908 124.541 27.7588C124.186 27.203 123.641 26.9256 122.907 26.9256C122.236 26.9256 121.69 27.1964 121.274 27.74C120.932 28.1721 120.729 28.6904 120.667 29.294H124.94V29.2949Z" fill="white"/>
<path d="M52.2803 14.3851H53.3375C54.3585 14.3851 54.9567 14.8301 54.9567 15.5801V15.5901C54.9567 16.2851 54.3276 16.7401 53.3684 16.7401C52.3886 16.7401 51.7646 16.3651 51.6821 15.7001L51.677 15.6601H50.5476L50.5528 15.7201C50.6301 16.9101 51.7234 17.7201 53.3684 17.7201C54.9619 17.7201 56.1377 16.8301 56.1377 15.6401V15.6301C56.1377 14.6601 55.524 13.9751 54.5287 13.8551V13.8151C55.3538 13.6301 55.9108 12.9601 55.9108 12.1601V12.1501C55.9108 11.0351 54.8897 10.2651 53.3942 10.2651C51.8368 10.2651 50.8209 11.0101 50.7436 12.2301L50.7384 12.3001H51.8471L51.8523 12.2301C51.94 11.6101 52.4814 11.2451 53.3581 11.2451C54.2502 11.2451 54.7659 11.6301 54.7659 12.2701V12.2801C54.7659 12.9701 54.1935 13.4451 53.3065 13.4451H52.2803V14.3851Z" fill="white"/>
<path d="M59.8727 17.6951C60.5946 17.6951 61.2186 17.3351 61.5332 16.7701H61.559V17.6001H62.6728V13.9751C62.6728 12.9201 61.8323 12.2401 60.507 12.2401C59.1713 12.2401 58.3617 12.9351 58.2844 13.8401L58.2792 13.8951H59.3312L59.3415 13.8501C59.4343 13.4301 59.8314 13.1351 60.476 13.1351C61.167 13.1351 61.559 13.4851 61.559 14.0651V14.4601L60.0789 14.5451C58.7949 14.6201 58.0626 15.1801 58.0626 16.0951V16.1051C58.0626 17.0501 58.7897 17.6951 59.8727 17.6951ZM59.1868 16.0801V16.0701C59.1868 15.6251 59.5581 15.3401 60.2285 15.3001L61.559 15.2201V15.6301C61.559 16.3151 60.9608 16.8301 60.1769 16.8301C59.5787 16.8301 59.1868 16.5401 59.1868 16.0801Z" fill="white"/>
<path d="M68.6047 13.2001V12.3401H65.0104V17.6001H66.1242V13.2001H68.6047Z" fill="white"/>
<path d="M70.6998 19.3501H71.8137V16.7151H71.8395C72.1592 17.3251 72.7832 17.7051 73.5516 17.7051C74.913 17.7051 75.8051 16.6501 75.8051 14.9751V14.9701C75.8051 13.2901 74.9181 12.2401 73.5361 12.2401C72.7626 12.2401 72.1644 12.6201 71.8395 13.2451H71.8137V12.3401H70.6998V19.3501ZM73.2473 16.7751C72.4067 16.7751 71.8085 16.0651 71.8085 14.9751V14.9701C71.8085 13.8751 72.4016 13.1651 73.2473 13.1651C74.124 13.1651 74.6706 13.8501 74.6706 14.9701V14.9751C74.6706 16.0851 74.124 16.7751 73.2473 16.7751Z" fill="white"/>
<path d="M78.4211 19.3551C79.4834 19.3551 80.0507 18.9351 80.4529 17.8451L82.4744 12.3401H81.2986L79.9321 16.6201H79.896L78.5294 12.3401H77.3227L79.2978 17.6051L79.2049 17.8551C79.0193 18.3651 78.7305 18.5001 78.2045 18.5001C78.055 18.5001 77.926 18.4801 77.8384 18.4601V19.3051C77.9725 19.3301 78.2045 19.3551 78.4211 19.3551Z" fill="white"/>
<path d="M86.3022 17.7051C87.6327 17.7051 88.5145 17.0501 88.5145 16.0701V16.0601C88.5145 15.4451 88.1226 15.0251 87.4058 14.8851V14.8451C87.9885 14.7151 88.365 14.2701 88.365 13.7051V13.6951C88.365 12.7951 87.6018 12.2401 86.3538 12.2401C85.1316 12.2401 84.3323 12.8001 84.2034 13.7351L84.1982 13.7751H85.2606L85.2657 13.7401C85.3482 13.3401 85.7556 13.0951 86.3383 13.0951C86.9262 13.0951 87.2769 13.3601 87.2769 13.8101V13.8201C87.2769 14.2901 86.9417 14.5301 86.2868 14.5301H85.5081V15.3151H86.2919C87.0448 15.3151 87.4058 15.5551 87.4058 16.0601V16.0701C87.4058 16.5501 86.9829 16.8451 86.2971 16.8451C85.6834 16.8451 85.2812 16.6151 85.1574 16.1901L85.1419 16.1401H84.0487L84.0538 16.1851C84.1621 17.1151 85.0336 17.7051 86.3022 17.7051Z" fill="white"/>
<path d="M90.6561 17.6001H91.7545L94.2453 13.9051H94.2917V17.6001H95.4004V12.3401H94.302L91.8112 16.0201H91.7597V12.3401H90.6561V17.6001Z" fill="white"/>
<path d="M101.884 12.3401H97.3718V13.2001H99.0684V17.6001H100.187V13.2001H101.884V12.3401Z" fill="white"/>
<path d="M106.073 17.7051C107.388 17.7051 108.228 16.9451 108.399 16.1101L108.414 16.0551H107.352L107.336 16.0951C107.197 16.4901 106.759 16.8201 106.099 16.8201C105.212 16.8201 104.65 16.2401 104.629 15.2451H108.471V14.8801C108.471 13.3001 107.537 12.2401 106.016 12.2401C104.495 12.2401 103.515 13.3401 103.515 14.9851V14.9901C103.515 16.6501 104.479 17.7051 106.073 17.7051ZM106.021 13.1251C106.748 13.1251 107.28 13.5701 107.367 14.4801H104.644C104.748 13.6001 105.299 13.1251 106.021 13.1251Z" fill="white"/>
<path d="M113.899 17.6001H116.395C117.57 17.6001 118.303 17.0101 118.303 16.0901V16.0801C118.303 15.4351 117.839 14.9651 117.137 14.8751V14.8351C117.658 14.7401 118.06 14.2451 118.06 13.7001V13.6901C118.06 12.8551 117.421 12.3401 116.364 12.3401H113.899V17.6001ZM115.002 14.5101V13.1401H116.132C116.668 13.1401 116.957 13.3751 116.957 13.8101V13.8201C116.957 14.2851 116.647 14.5101 116.018 14.5101H115.002ZM115.002 16.8001V15.2951H116.059C116.792 15.2951 117.158 15.5301 117.158 16.0351V16.0451C117.158 16.5451 116.817 16.8001 116.188 16.8001H115.002Z" fill="white"/>
</svg>
