<svg width="83" height="79" viewBox="0 0 83 79" fill="none" xmlns="http://www.w3.org/2000/svg">
<path d="M5.29486 1.00131C3.68223 0.91448 1.38526 3.96784 0 11.0011H10C9.99165 8.84986 9.49841 8.58954 8.94737 6.50127C8.33263 4.15292 6.45486 1.06249 5.29486 1.00131Z" fill="#43A115"/>
<path d="M78 0.999844C79.6126 0.913015 81.6147 3.96794 83 11.0012H73C73.0084 8.84996 73.5016 8.58964 74.0526 6.50137C74.6674 4.15302 76.84 1.06102 78 0.999844Z" fill="#43A115"/>
<path d="M78 1C77.8717 1 77.7375 1 77.5992 1C77.4609 1 77.3366 1 77.2104 1H5.78765C5.6634 1 5.5331 1 5.40082 1C5.26855 1 5.12626 1 5 1C5.54111 2.06385 5.91789 2.95984 6.15638 3.55851C7.88393 7.91101 8.25674 11.6325 8.25072 13.4103C8.25072 14.1707 8.25072 14.9332 8.25072 15.6957V78.9995L41.499 66.8964L74.7533 78.9995V15.6897V13.4042C74.7533 11.6264 75.1201 7.90494 76.8457 3.55244C77.0822 2.95984 77.4609 2.06385 78 1Z" fill="url(#paint0_radial_521_8233)"/>
<defs>
<radialGradient id="paint0_radial_521_8233" cx="0" cy="0" r="1" gradientUnits="userSpaceOnUse" gradientTransform="translate(2.54328 48.443) rotate(-2.23334) scale(82.5387 298.63)">
<stop stop-color="#49B41D"/>
<stop offset="1" stop-color="#84E227"/>
</radialGradient>
</defs>
</svg>
