<svg width="12" height="16" viewBox="0 0 12 16" fill="none" xmlns="http://www.w3.org/2000/svg">
<path d="M5.4675 12.2825C5.53883 12.3508 5.62294 12.4043 5.715 12.44C5.8976 12.515 6.1024 12.515 6.285 12.44C6.37706 12.4043 6.46117 12.3508 6.5325 12.2825L9.5325 9.2825C9.60243 9.21257 9.6579 9.12955 9.69574 9.03819C9.73359 8.94682 9.75307 8.84889 9.75307 8.75C9.75307 8.65111 9.73359 8.55318 9.69574 8.46181C9.6579 8.37045 9.60243 8.28743 9.5325 8.2175C9.46257 8.14757 9.37955 8.0921 9.28819 8.05425C9.19682 8.01641 9.09889 7.99693 9 7.99693C8.90111 7.99693 8.80318 8.01641 8.71181 8.05425C8.62045 8.0921 8.53743 8.14757 8.4675 8.2175L6.75 9.9425L6.75 1.25C6.75 1.05109 6.67098 0.860322 6.53033 0.719669C6.38968 0.579016 6.19891 0.499999 6 0.499999C5.80109 0.499999 5.61032 0.579016 5.46967 0.719669C5.32902 0.860321 5.25 1.05109 5.25 1.25L5.25 9.9425L3.5325 8.2175C3.46278 8.1472 3.37983 8.09141 3.28843 8.05333C3.19704 8.01525 3.09901 7.99565 3 7.99565C2.90099 7.99565 2.80296 8.01525 2.71157 8.05333C2.62017 8.09141 2.53722 8.1472 2.4675 8.2175C2.3972 8.28722 2.34141 8.37017 2.30333 8.46157C2.26525 8.55296 2.24565 8.65099 2.24565 8.75C2.24565 8.84901 2.26525 8.94704 2.30333 9.03843C2.34141 9.12983 2.3972 9.21278 2.4675 9.2825L5.4675 12.2825ZM0.749998 15.5L11.25 15.5C11.4489 15.5 11.6397 15.421 11.7803 15.2803C11.921 15.1397 12 14.9489 12 14.75C12 14.5511 11.921 14.3603 11.7803 14.2197C11.6397 14.079 11.4489 14 11.25 14L0.749998 14C0.551086 14 0.36032 14.079 0.219668 14.2197C0.0790149 14.3603 -1.82439e-06 14.5511 -1.84178e-06 14.75C-1.85917e-06 14.9489 0.0790148 15.1397 0.219667 15.2803C0.36032 15.421 0.551085 15.5 0.749998 15.5Z" fill="#FD500A"/>
</svg>
