<svg width="167" height="48" viewBox="0 0 167 48" fill="none" xmlns="http://www.w3.org/2000/svg">
<path d="M0 6.4C0 2.86538 2.95527 0 6.60079 0H160.399C164.045 0 167 2.86538 167 6.4V41.6C167 45.1346 164.045 48 160.399 48H6.60079C2.95527 48 0 45.1346 0 41.6V6.4Z" fill="#414141"/>
<path fill-rule="evenodd" clip-rule="evenodd" d="M0 41.6V6.4C0 2.86538 2.95527 0 6.60079 0H160.399C164.045 0 167 2.86538 167 6.4V41.6C167 45.1346 164.045 48 160.399 48H6.60079C2.95527 48 0 45.1346 0 41.6ZM0.990119 41.6V6.4C0.990119 3.39557 3.5021 0.96 6.60079 0.96H160.399C163.498 0.96 166.01 3.39557 166.01 6.4V41.6C166.01 44.6044 163.498 47.04 160.399 47.04H6.60079C3.5021 47.04 0.990119 44.6044 0.990119 41.6Z" fill="white" fill-opacity="0.3"/>
<path d="M84.6171 26.0768C81.6452 26.0768 79.1898 28.3271 79.1898 31.4125C79.1898 34.4727 81.6195 36.7482 84.6174 36.7482C87.615 36.7482 90.0444 34.4979 90.0444 31.4125C90.0444 28.3271 87.615 26.0768 84.6171 26.0768ZM84.6171 34.625C82.9885 34.625 81.5679 33.2843 81.5679 31.3887C81.5679 29.4668 82.9897 28.1524 84.6171 28.1524C86.2445 28.1524 87.6662 29.4668 87.6662 31.3887C87.6662 33.2843 86.2445 34.625 84.6171 34.625ZM72.8062 26.0768C69.8083 26.0768 67.3786 28.3271 67.3786 31.4125C67.3786 34.4727 69.8083 36.7482 72.8062 36.7482C75.8039 36.7482 78.2336 34.4979 78.2336 31.4125C78.2336 28.3271 75.8039 26.0768 72.8059 26.0768H72.8062ZM72.8062 34.625C71.1774 34.625 69.7571 33.2843 69.7571 31.3887C69.7571 29.4668 71.1788 28.1524 72.8062 28.1524C74.4348 28.1524 75.8554 29.4668 75.8554 31.3887C75.8554 33.2843 74.4591 34.625 72.8062 34.625ZM58.7725 27.7207V29.971H64.2511C64.0954 31.2353 63.6574 32.1709 63.0108 32.8036C62.2099 33.5872 60.9693 34.4475 58.7725 34.4475C55.3864 34.4475 52.777 31.7672 52.777 28.4542C52.777 25.1412 55.3878 22.4102 58.7725 22.4102C60.6068 22.4102 61.9258 23.1185 62.9078 24.0292L64.5352 22.4354C63.165 21.1462 61.3307 20.1602 58.7725 20.1602C54.1458 20.1602 50.2689 23.8769 50.2689 28.4038C50.2689 32.931 54.1458 36.6477 58.7725 36.6477C61.2792 36.6477 63.1407 35.8389 64.6393 34.3207C66.1641 32.8288 66.6293 30.7294 66.6293 29.0354C66.6293 28.5046 66.5781 28.0239 66.4997 27.6191L58.7725 27.7207ZM116.199 29.4654C115.759 28.2767 114.365 26.0768 111.572 26.0768C108.78 26.0768 106.481 28.2266 106.481 31.4125C106.481 34.396 108.78 36.7482 111.831 36.7482C114.312 36.7482 115.734 35.2563 116.328 34.396L114.493 33.1824C113.872 34.0679 113.046 34.6488 111.831 34.6488C110.616 34.6488 109.764 34.118 109.22 33.0301L116.431 30.0718L116.199 29.4654ZM108.859 31.2616C108.808 29.2126 110.488 28.151 111.675 28.151C112.632 28.151 113.407 28.6062 113.691 29.2893L108.859 31.2616ZM102.992 36.3946H105.37V20.7663H102.992V36.3946ZM99.1163 27.2655H99.039C98.4966 26.6328 97.4889 26.0768 96.1956 26.0768C93.4818 26.0768 91.0267 28.429 91.0267 31.4125C91.0267 34.396 93.5076 36.7233 96.1956 36.7233C97.4874 36.7233 98.4954 36.167 99.039 35.5091H99.1163V36.2678C99.1163 38.3168 98.0042 39.4033 96.2214 39.4033C94.7739 39.4033 93.8689 38.3669 93.5076 37.5066L91.4407 38.3669C92.0344 39.7832 93.6117 41.5279 96.2214 41.5279C99.0122 41.5279 101.365 39.9092 101.365 35.9898V26.4052H99.1163V27.2655ZM96.4025 34.625C94.7739 34.625 93.4049 33.2843 93.4049 31.4139C93.4049 29.5435 94.7751 28.1773 96.4025 28.1773C98.0056 28.1773 99.2974 29.5435 99.2974 31.4139C99.2963 33.2591 98.0042 34.625 96.4025 34.625ZM127.286 20.7665H121.601V36.3946H123.979V30.4766H127.286C129.923 30.4766 132.507 28.6048 132.507 25.6216C132.507 22.6381 129.923 20.7663 127.286 20.7663V20.7665ZM127.363 28.3033H124.003V22.941H127.363C129.121 22.941 130.154 24.3825 130.154 25.6213C130.13 26.8352 129.122 28.3033 127.363 28.3033ZM141.992 26.0516C140.287 26.0516 138.503 26.7851 137.78 28.4542L139.874 29.3145C140.339 28.4542 141.166 28.1762 142.045 28.1762C143.286 28.1762 144.526 28.9094 144.552 30.1986V30.3509C144.112 30.0981 143.208 29.7434 142.071 29.7434C139.797 29.7434 137.496 30.9825 137.496 33.2591C137.496 35.3582 139.357 36.6981 141.424 36.6981C143.027 36.6981 143.905 35.9898 144.448 35.1558H144.525V36.3697H146.824V30.3758C146.799 27.6199 144.706 26.0513 141.992 26.0513V26.0516ZM141.708 34.5998C140.933 34.5998 139.847 34.2199 139.847 33.2854C139.847 32.0715 141.19 31.6163 142.354 31.6163C143.387 31.6163 143.878 31.8439 144.525 32.1471C144.344 33.5886 143.077 34.5998 141.708 34.5998ZM155.121 26.4066L152.407 33.1583H152.33L149.514 26.4063H146.956L151.194 35.8638L148.79 41.1494H151.271L157.757 26.4063H155.121L155.121 26.4066ZM133.826 36.3946H136.204V20.7663H133.826V36.3946Z" fill="white"/>
<path d="M57.4546 13.4413V15.762H56.4658V14.4H51.9192V15.762H50.9304V13.4413H51.6697C51.9161 13.1068 52.0978 12.6259 52.2149 11.9987C52.332 11.3656 52.3905 10.6786 52.3905 9.93795V7.98467H56.7246V13.4413H57.4546ZM55.6896 13.4413V8.94339H53.4162V10.1082C53.4162 10.7772 53.3608 11.3984 53.2499 11.9719C53.1452 12.5453 52.985 13.0351 52.7694 13.4413H55.6896Z" fill="white"/>
<path d="M61.6504 14.5434C61.0097 14.5434 60.4275 14.397 59.9039 14.1044C59.3802 13.8057 58.9674 13.3995 58.6656 12.8858C58.3698 12.3721 58.222 11.8076 58.222 11.1923C58.222 10.5771 58.3698 10.0156 58.6656 9.50787C58.9674 8.99416 59.3802 8.58798 59.9039 8.28931C60.4275 7.99064 61.0097 7.84131 61.6504 7.84131C62.2912 7.84131 62.8703 7.99064 63.3878 8.28931C63.9114 8.58798 64.3242 8.99416 64.6261 9.50787C64.9279 10.0156 65.0789 10.5771 65.0789 11.1923C65.0789 11.8076 64.9279 12.3721 64.6261 12.8858C64.3304 13.3995 63.9207 13.8057 63.397 14.1044C62.8733 14.397 62.2912 14.5434 61.6504 14.5434ZM61.6504 13.5847C62.0878 13.5847 62.4883 13.4831 62.8518 13.28C63.2153 13.0769 63.5017 12.7962 63.7112 12.4378C63.9207 12.0734 64.0254 11.6583 64.0254 11.1923C64.0254 10.7264 63.9207 10.3143 63.7112 9.95587C63.5017 9.5915 63.2153 9.30776 62.8518 9.10467C62.4883 8.90158 62.0878 8.80003 61.6504 8.80003C61.213 8.80003 60.8126 8.90158 60.4491 9.10467C60.0856 9.30776 59.7961 9.5915 59.5804 9.95587C59.371 10.3143 59.2662 10.7264 59.2662 11.1923C59.2662 11.6583 59.371 12.0734 59.5804 12.4378C59.7961 12.7962 60.0856 13.0769 60.4491 13.28C60.8126 13.4831 61.213 13.5847 61.6504 13.5847Z" fill="white"/>
<path d="M69.2948 14.5434C68.6541 14.5434 68.0689 14.397 67.539 14.1044C67.0092 13.8117 66.5934 13.4085 66.2915 12.8947C65.9896 12.381 65.8387 11.8136 65.8387 11.1923C65.8387 10.5711 65.9896 10.0037 66.2915 9.48995C66.5934 8.97624 67.0092 8.57304 67.539 8.28035C68.0689 7.98766 68.6541 7.84131 69.2948 7.84131C69.7939 7.84131 70.2467 7.93091 70.6533 8.11011C71.0661 8.28931 71.4295 8.54915 71.7437 8.88963L71.0045 9.57955C70.7765 9.31672 70.5239 9.12259 70.2467 8.99715C69.9694 8.86574 69.6522 8.80003 69.2948 8.80003C68.8513 8.80003 68.4447 8.89859 68.075 9.09571C67.7115 9.29283 67.422 9.57358 67.2064 9.93795C66.9907 10.2963 66.8829 10.7145 66.8829 11.1923C66.8829 11.6702 66.9907 12.0913 67.2064 12.4557C67.422 12.8141 67.7115 13.0919 68.075 13.289C68.4447 13.4861 68.8513 13.5847 69.2948 13.5847C70.0341 13.5847 70.6625 13.286 71.18 12.6887L71.9286 13.3875C71.6082 13.7519 71.2232 14.0357 70.7734 14.2387C70.3237 14.4418 69.8308 14.5434 69.2948 14.5434Z" fill="white"/>
<path d="M74.4241 8.94339H72.5759V7.98467H77.3073V8.94339H75.4591V14.4H74.4241V8.94339Z" fill="white"/>
<path d="M79.0209 14.5434C78.7929 14.5434 78.5989 14.5046 78.4387 14.4269V13.4503C78.642 13.5578 78.8268 13.6115 78.9932 13.6115C79.1595 13.6115 79.292 13.5817 79.3905 13.5219C79.4891 13.4562 79.5784 13.3368 79.6585 13.1635L79.8896 12.6976L77.6902 7.98467H78.8453L80.3886 11.5418H80.444L81.9965 7.98467H83.1517L80.6196 13.3786C80.4348 13.7788 80.2099 14.0745 79.945 14.2656C79.6863 14.4508 79.3782 14.5434 79.0209 14.5434Z" fill="white"/>
<path d="M84.0489 7.98467H88.9744V14.4H87.9394V8.94339H85.0839V14.4H84.0489V7.98467Z" fill="white"/>
<path d="M90.4834 7.98467H91.5184V10.6458H94.5865V7.98467H95.6122V14.4H94.5865V11.5955H91.5184V14.4H90.4834V7.98467Z" fill="white"/>
<path d="M100.131 14.5434C99.4903 14.5434 98.9081 14.397 98.3844 14.1044C97.8607 13.8057 97.448 13.3995 97.1461 12.8858C96.8504 12.3721 96.7025 11.8076 96.7025 11.1923C96.7025 10.5771 96.8504 10.0156 97.1461 9.50787C97.448 8.99416 97.8607 8.58798 98.3844 8.28931C98.9081 7.99064 99.4903 7.84131 100.131 7.84131C100.772 7.84131 101.351 7.99064 101.868 8.28931C102.392 8.58798 102.805 8.99416 103.107 9.50787C103.408 10.0156 103.559 10.5771 103.559 11.1923C103.559 11.8076 103.408 12.3721 103.107 12.8858C102.811 13.3995 102.401 13.8057 101.878 14.1044C101.354 14.397 100.772 14.5434 100.131 14.5434ZM100.131 13.5847C100.568 13.5847 100.969 13.4831 101.332 13.28C101.696 13.0769 101.982 12.7962 102.192 12.4378C102.401 12.0734 102.506 11.6583 102.506 11.1923C102.506 10.7264 102.401 10.3143 102.192 9.95587C101.982 9.5915 101.696 9.30776 101.332 9.10467C100.969 8.90158 100.568 8.80003 100.131 8.80003C99.6936 8.80003 99.2931 8.90158 98.9296 9.10467C98.5662 9.30776 98.2766 9.5915 98.061 9.95587C97.8515 10.3143 97.7468 10.7264 97.7468 11.1923C97.7468 11.6583 97.8515 12.0734 98.061 12.4378C98.2766 12.7962 98.5662 13.0769 98.9296 13.28C99.2931 13.4831 99.6936 13.5847 100.131 13.5847Z" fill="white"/>
<path d="M106.908 7.98467H109.394C109.745 7.98467 110.068 8.05934 110.364 8.20867C110.666 8.358 110.906 8.56408 111.085 8.82691C111.264 9.08974 111.353 9.37944 111.353 9.69603C111.353 10.0126 111.27 10.2874 111.103 10.5203C110.943 10.7533 110.731 10.9295 110.466 11.049V11.1027C110.799 11.2162 111.067 11.4044 111.27 11.6672C111.479 11.9301 111.584 12.2377 111.584 12.5901C111.584 12.9425 111.489 13.2561 111.298 13.5309C111.113 13.8057 110.86 14.0207 110.54 14.176C110.226 14.3254 109.881 14.4 109.505 14.4H106.908V7.98467ZM109.348 10.6727C109.643 10.6727 109.881 10.5831 110.059 10.4039C110.244 10.2247 110.336 10.0186 110.336 9.78563C110.336 9.55267 110.247 9.34958 110.068 9.17635C109.896 8.99715 109.668 8.90755 109.385 8.90755H107.943V10.6727H109.348ZM109.505 13.4682C109.819 13.4682 110.068 13.3726 110.253 13.1815C110.444 12.9903 110.54 12.7693 110.54 12.5184C110.54 12.2616 110.441 12.0406 110.244 11.8554C110.053 11.6642 109.794 11.5687 109.468 11.5687H107.943V13.4682H109.505Z" fill="white"/>
<path d="M35.2126 29.1463C39.1667 27.0217 42.1646 25.403 42.423 25.2773C43.2493 24.847 44.1031 23.7087 42.423 22.8246C41.8805 22.5466 38.9599 20.978 35.2126 18.9556L30.0182 24.0886L35.2123 29.1463H35.2126Z" fill="#FFD900"/>
<path d="M30.0181 24.0889L13.4778 40.4003C13.8658 40.4507 14.3041 40.3499 14.8211 40.0719C15.9061 39.491 27.4071 33.3451 35.2129 29.1477L30.0181 24.0889V24.0889Z" fill="#F43249"/>
<path d="M30.0182 24.0886L35.2123 18.9805C35.2123 18.9805 15.9845 8.7131 14.8208 8.10726C14.3831 7.85252 13.8918 7.7772 13.4523 7.85252L30.0182 24.0884V24.0886Z" fill="#00EE76"/>
<path d="M30.0182 24.0889L13.4521 7.85303C12.7797 8.00504 12.2115 8.58624 12.2115 9.77438V38.4781C12.2115 39.5663 12.6512 40.3499 13.4775 40.4252L30.0179 24.0886L30.0182 24.0889Z" fill="#00D3FF"/>
</svg>
