<svg width="24" height="24" viewBox="0 0 24 24" fill="none" xmlns="http://www.w3.org/2000/svg">
<path d="M12 2.54371C15.0877 2.54371 15.4737 2.54371 16.728 2.6402C19.9122 2.73669 21.3596 4.28055 21.4561 7.36827C21.5526 8.62265 21.5526 8.91213 21.5526 11.9998C21.5526 15.0876 21.5526 15.4735 21.4561 16.6314C21.3596 19.7191 19.8158 21.263 16.728 21.3595C15.4737 21.456 15.1842 21.456 12 21.456C8.91225 21.456 8.52628 21.456 7.36839 21.3595C4.18418 21.263 2.73681 19.7191 2.64032 16.6314C2.54383 15.377 2.54383 15.0876 2.54383 11.9998C2.54383 8.91213 2.54383 8.52616 2.64032 7.36827C2.73681 4.28055 4.28067 2.73669 7.36839 2.6402C8.52628 2.54371 8.91225 2.54371 12 2.54371ZM12 0.420898C8.81576 0.420898 8.42979 0.420898 7.2719 0.51739C3.02628 0.710372 0.710494 3.02616 0.517512 7.27178C0.421021 8.42967 0.421021 8.81563 0.421021 11.9998C0.421021 15.1841 0.421021 15.57 0.517512 16.7279C0.710494 20.9735 3.02628 23.2893 7.2719 23.4823C8.42979 23.5788 8.81576 23.5788 12 23.5788C15.1842 23.5788 15.5701 23.5788 16.728 23.4823C20.9736 23.2893 23.2894 20.9735 23.4824 16.7279C23.5789 15.57 23.5789 15.1841 23.5789 11.9998C23.5789 8.81563 23.5789 8.42967 23.4824 7.27178C23.2894 3.02616 20.9736 0.710372 16.728 0.51739C15.5701 0.420898 15.1842 0.420898 12 0.420898ZM12 6.01739C8.71927 6.01739 6.01751 8.71914 6.01751 11.9998C6.01751 15.2805 8.71927 17.9823 12 17.9823C15.2807 17.9823 17.9824 15.2805 17.9824 11.9998C17.9824 8.71914 15.2807 6.01739 12 6.01739ZM12 15.8595C9.87716 15.8595 8.14032 14.1227 8.14032 11.9998C8.14032 9.87704 9.87716 8.1402 12 8.1402C14.1228 8.1402 15.8596 9.87704 15.8596 11.9998C15.8596 14.1227 14.1228 15.8595 12 15.8595ZM18.1754 4.47353C17.4035 4.47353 16.8245 5.05248 16.8245 5.82441C16.8245 6.59634 17.4035 7.17528 18.1754 7.17528C18.9473 7.17528 19.5263 6.59634 19.5263 5.82441C19.5263 5.05248 18.9473 4.47353 18.1754 4.47353Z" fill="#AEAEAE"/>
</svg>
