<svg width="240" height="42" viewBox="0 0 240 42" fill="none" xmlns="http://www.w3.org/2000/svg">
<path fill-rule="evenodd" clip-rule="evenodd" d="M14.2564 16.6796C21.117 14.9843 22.4549 9.73116 20.256 6.23744C19.2573 4.60351 17.6168 3.39241 15.6784 2.85804C13.7401 2.32367 11.6544 2.50754 9.85874 3.37109C0.478383 7.89926 -1.65747 23.8008 1.14434 27.091C2.64423 21.3165 7.37791 18.372 14.2414 16.6796H14.2564ZM30.9623 25.3232C24.0988 27.0157 22.7609 32.2688 24.9447 35.7626C25.944 37.396 27.5847 38.6065 29.523 39.1403C31.4613 39.6742 33.5467 39.4899 35.342 38.6261C44.7224 34.0896 46.8582 18.1964 44.0594 14.909C42.5595 20.6835 37.8228 23.628 30.9623 25.3232ZM17.9612 28.764C19.7821 35.1436 22.9498 39.5435 29.1624 40.9376C25.6227 43.5391 8.51483 41.5566 3.64317 32.8349C2.71401 31.1665 2.51583 29.2286 3.09018 27.4274C3.66453 25.6263 4.9668 24.1017 6.72396 23.1735C10.4797 21.1408 16.1343 22.3844 17.9582 28.75L17.9612 28.764ZM27.2605 13.236C25.4397 6.85645 22.2719 2.45654 16.0593 1.0624C19.5961 -1.53907 36.7069 0.443398 41.5756 9.16514C42.5047 10.8335 42.7029 12.7714 42.1286 14.5726C41.5542 16.3737 40.2519 17.8983 38.4948 18.8265C34.736 20.8592 29.0844 19.6156 27.2605 13.25V13.236Z" fill="#FD5009"/>
<path fill-rule="evenodd" clip-rule="evenodd" d="M58.5244 18.9018H60.7923C62.9301 18.9018 64.361 18.5301 65.085 17.7865C65.8089 17.043 66.1679 15.5559 66.1619 13.3253C66.1619 11.2489 65.787 9.83156 65.037 9.07315C64.2931 8.31753 62.8831 7.93832 60.7923 7.93832H58.5244V18.8935V18.9018ZM71.4236 22.0889C69.5997 23.6112 66.0539 24.3706 60.7863 24.3669H58.5184V38.8659H50.521V2.48166H62.3762C66.6219 2.48166 69.6497 3.30606 71.4596 4.95486C73.2694 6.60367 74.1694 9.36407 74.1594 13.2361C74.1594 16.0411 73.8594 20.0534 71.4176 22.0889H71.4236ZM83.0328 39.5965C86.6325 39.5965 89.3213 38.8957 91.0992 37.4941C92.8771 36.0925 93.734 33.992 93.67 31.1926V30.4453H86.5575V31.1926C86.6325 32.7763 86.4435 33.9028 85.9996 34.5803C85.5556 35.2579 84.7786 35.6008 83.6537 35.6008C82.4718 35.6008 81.6859 35.1269 81.3079 34.1844C80.9299 33.242 80.7409 31.2902 80.7409 28.3513V27.5762H93.676V23.8901C93.676 19.7448 92.9761 16.9259 91.5762 15.4332C90.1763 13.9406 87.5355 13.1887 83.6537 13.1775C79.976 13.1775 77.3852 14.0428 75.8813 15.7734C74.3774 17.504 73.6234 20.4763 73.6194 24.6903V29.7092C73.6194 33.2076 74.3564 35.7328 75.8303 37.285C77.3042 38.8371 79.704 39.6113 83.0298 39.6076L83.0328 39.5965ZM86.5515 23.7033H80.7409V23.3408C80.7409 20.9484 80.9419 19.3201 81.3409 18.4669C81.7399 17.6136 82.5138 17.1731 83.6477 17.1731C84.7816 17.1731 85.5376 17.5328 85.9456 18.2466C86.3535 18.9604 86.5455 20.3071 86.5455 22.2868V23.7033H86.5515ZM95.5779 13.7352H102.417V17.0086C102.656 16.5668 102.931 16.1427 103.239 15.7399C104.515 14.2343 106.677 13.3922 109.725 13.2137V18.8907C109.214 18.7987 108.694 18.7631 108.174 18.7847C106.104 18.7847 104.667 19.2615 103.854 20.2012C103.041 21.1408 102.672 22.7803 102.747 25.103V39.0444H95.5779V13.7352ZM121.847 18.2215V39.0499H114.672V18.2215H110.88V13.7352H114.672V9.6336C114.672 7.16039 115.272 5.32291 116.495 4.13511C117.719 2.9473 119.597 2.33945 122.12 2.33945C123.39 2.33642 124.659 2.40346 125.921 2.54021V6.90387L124.892 6.88157C123.785 6.88157 122.999 7.08232 122.537 7.49498C122.075 7.90765 121.847 8.6103 121.847 9.6336V13.7352H125.921V18.2215H121.847ZM207.068 13.7352H213.8V16.1805L213.83 16.1554C215.228 14.1729 217.31 13.1775 220.051 13.1775C222.415 13.1775 224.186 13.7612 225.364 14.9285C225.836 15.4047 226.211 15.9564 226.471 16.5569C226.633 16.243 226.834 15.9481 227.071 15.6786C228.461 14.0056 230.461 13.1691 233.07 13.1691C235.378 13.1691 237.111 13.7965 238.269 15.0512C239.424 16.3115 240 18.1936 240 20.7282V39.0304H232.824V21.2635C232.824 20.1287 232.605 19.256 232.162 18.6342C231.961 18.3396 231.681 18.0991 231.35 17.9367C231.018 17.7742 230.646 17.6955 230.272 17.7085C229.813 17.6835 229.356 17.7702 228.944 17.96C228.533 18.1497 228.182 18.4359 227.926 18.7903C227.398 19.5134 227.133 20.5878 227.131 22.0136V39.0555H219.955V21.3109C219.955 20.1593 219.739 19.2699 219.295 18.6453C219.095 18.3468 218.814 18.1025 218.48 17.9371C218.147 17.7716 217.772 17.6909 217.394 17.7029C216.155 17.7029 215.294 18.1434 214.841 19.0134C214.388 19.8833 214.172 21.4085 214.241 23.5555V39.0499H207.068V13.7352ZM192.294 31.4742C192.294 32.7512 192.492 33.6658 192.894 34.2374C193.296 34.809 193.962 35.0739 194.862 35.0739C196.08 35.0739 196.923 34.6333 197.397 33.7634C197.871 32.8934 198.069 31.3682 197.997 29.2241V13.7352H205.172V39.0499H198.438V36.5405C196.538 38.5555 194.338 39.5704 191.838 39.5853C189.588 39.5853 187.897 38.9775 186.781 37.7562C185.665 36.5349 185.11 34.6891 185.11 32.2633V13.7352H192.285V31.4742H192.294ZM183.217 39.2814C181.628 39.4965 180.023 39.599 178.417 39.5881C176.149 39.5881 174.441 38.9607 173.294 37.706C172.146 36.4513 171.573 34.5766 171.575 32.082V18.2215H167.759V13.7352H171.581V9.68657L178.756 6.93175V13.7352H183.217V18.2215H178.756V32.0904C178.756 33.3117 178.897 34.1147 179.17 34.4911C179.443 34.8675 180.052 35.0488 180.97 35.0488C181.719 35.0346 182.467 34.9852 183.211 34.901V39.2842L183.217 39.2814ZM166.667 18.2131C166.996 19.3823 167.152 20.5877 167.132 21.7961V22.8528H160.013V22.1C160.085 20.6055 159.947 19.4874 159.588 18.7541C159.457 18.4205 159.217 18.1335 158.902 17.9334C158.586 17.7333 158.211 17.6302 157.83 17.6387C156.938 17.6387 156.323 17.9733 155.985 18.6425C155.647 19.3117 155.477 20.532 155.475 22.3035V29.4332C155.475 31.7558 155.625 33.2894 155.919 34.0255C156.213 34.7616 156.819 35.1408 157.743 35.1408C158.667 35.1408 159.243 34.8229 159.597 34.1983C159.95 33.5738 160.085 32.5254 160.013 31.0671V29.5698H167.132V31.0671C167.186 33.9167 166.429 36.0544 164.861 37.4801C163.293 38.9059 160.92 39.616 157.743 39.6104C154.425 39.6104 152.03 38.8538 150.558 37.3407C149.086 35.8276 148.352 33.3693 148.356 29.9657V22.8333C148.356 19.4279 149.09 16.9696 150.558 15.4583C152.026 13.9471 154.421 13.1868 157.743 13.1775C161.042 13.1775 163.442 13.8885 164.942 15.3161C165.821 16.1386 166.283 17.1313 166.661 18.2103L166.667 18.2131ZM139.333 23.706V22.2896C139.333 20.3099 139.135 18.9604 138.733 18.2494C138.331 17.5384 137.563 17.1759 136.438 17.1759C135.313 17.1759 134.536 17.6081 134.131 18.4697C133.726 19.3312 133.531 20.9512 133.531 23.3436V23.706H139.333ZM135.817 39.5992C132.495 39.5992 130.096 38.825 128.618 37.2766C127.14 35.7282 126.406 33.202 126.416 29.6981V24.6792C126.416 20.4633 127.169 17.4947 128.675 15.7734C130.181 14.0521 132.766 13.1868 136.432 13.1775C140.308 13.1775 142.945 13.9257 144.343 15.4221C145.74 16.9184 146.44 19.7374 146.442 23.8789V27.565H133.519V28.3402C133.519 31.279 133.708 33.2234 134.086 34.1732C134.464 35.1157 135.25 35.5897 136.432 35.5897C137.557 35.5897 138.343 35.2467 138.775 34.5692C139.207 33.8916 139.408 32.7652 139.333 31.1814V30.4342H146.454V31.1814C146.511 33.9697 145.647 36.0832 143.881 37.4829C142.114 38.8827 139.42 39.5965 135.817 39.5965V39.5992Z" fill="white"/>
</svg>
