<svg width="66" height="66" viewBox="0 0 66 66" fill="none" xmlns="http://www.w3.org/2000/svg">
<path d="M50.62 48.2469L33 65.9999L15.38 48.2469C11.8951 44.7357 9.52188 40.2622 8.56042 35.392C7.59897 30.5219 8.09245 25.4738 9.97847 20.8862C11.8645 16.2986 15.0583 12.3776 19.1561 9.61887C23.2539 6.86015 28.0716 5.3877 33 5.3877C37.9284 5.3877 42.7461 6.86015 46.8439 9.61887C50.9417 12.3776 54.1355 16.2986 56.0215 20.8862C57.9075 25.4738 58.401 30.5219 57.4396 35.392C56.4781 40.2622 54.1049 44.7357 50.62 48.2469Z" fill="#FD500A"/>
<path fill-rule="evenodd" clip-rule="evenodd" d="M27.281 27.1194C31.9829 25.869 32.8999 21.9942 31.3929 19.4172C30.7084 18.212 29.584 17.3187 28.2556 16.9245C26.9271 16.5304 25.4977 16.666 24.267 17.303C17.8381 20.643 16.3742 32.3721 18.2945 34.799C19.3224 30.5396 22.5667 28.3678 27.2707 27.1194H27.281ZM38.7305 33.4951C34.0265 34.7435 33.1096 38.6182 34.6063 41.1952C35.2912 42.4 36.4156 43.2929 37.7441 43.6867C39.0725 44.0805 40.5017 43.9445 41.7322 43.3074C48.1611 39.9612 49.6249 28.2382 47.7067 25.8134C46.6788 30.0728 43.4325 32.2446 38.7305 33.4951ZM29.8201 36.033C31.068 40.7386 33.2391 43.984 37.497 45.0124C35.0709 46.9312 23.3459 45.4689 20.0071 39.0357C19.3703 37.8051 19.2344 36.3757 19.6281 35.0471C20.0217 33.7186 20.9142 32.5941 22.1185 31.9094C24.6926 30.4101 28.568 31.3273 29.818 36.0227L29.8201 36.033ZM36.1935 24.5794C34.9455 19.8738 32.7745 16.6284 28.5166 15.6C30.9406 13.6812 42.6676 15.1435 46.0044 21.5767C46.6412 22.8073 46.7771 24.2367 46.3834 25.5653C45.9898 26.8938 45.0973 28.0183 43.893 28.703C41.3169 30.2023 37.4435 29.2851 36.1935 24.5897V24.5794Z" fill="white"/>
</svg>
