<svg width="14" height="23" viewBox="0 0 14 23" fill="none" xmlns="http://www.w3.org/2000/svg">
<path d="M12.6137 6.17825C12.6137 9.32306 10.0901 11.8812 6.98571 11.8812C3.88194 11.8812 1.3577 9.32306 1.3577 6.17825C1.3577 3.03242 3.88194 0.473633 6.98571 0.473633C10.0901 0.473633 12.6137 3.03242 12.6137 6.17825ZM9.31598 6.17823C9.31598 4.8758 8.27073 3.81672 6.98571 3.81672C5.70171 3.81672 4.65544 4.8758 4.65544 6.17823C4.65544 7.47964 5.70171 8.5394 6.98571 8.5394C8.27073 8.5394 9.31598 7.47964 9.31598 6.17823Z" fill="#AEAEAE"/>
<path d="M9.27715 16.5371C10.4228 16.2726 11.5276 15.8132 12.5453 15.1654C13.3154 14.6732 13.5474 13.6414 13.0622 12.8608C12.5772 12.0786 11.5599 11.8431 10.7885 12.3352C8.48311 13.8046 5.51505 13.8042 3.21105 12.3352C2.43957 11.8431 1.42193 12.0786 0.938024 12.8608C0.452776 13.6421 0.684119 14.6732 1.45425 15.1654C2.47189 15.8125 3.57675 16.2726 4.72235 16.5371L1.57582 19.7262C0.932636 20.3788 0.932636 21.4369 1.57649 22.0895C1.89876 22.4154 2.32036 22.5786 2.74196 22.5786C3.16424 22.5786 3.58652 22.4154 3.90878 22.0895L6.99942 18.9556L10.0927 22.0895C10.7359 22.742 11.7795 22.742 12.4234 22.0895C13.0679 21.4369 13.0679 20.3781 12.4234 19.7262L9.27715 16.5371Z" fill="#AEAEAE"/>
</svg>
