<svg width="20" height="20" viewBox="0 0 20 20" fill="none" xmlns="http://www.w3.org/2000/svg">
<path d="M17.5734 15.0667V17.5667C17.5744 17.7988 17.5268 18.0285 17.4339 18.2412C17.3409 18.4538 17.2045 18.6447 17.0335 18.8016C16.8625 18.9585 16.6606 19.078 16.4407 19.1523C16.2209 19.2267 15.9879 19.2543 15.7568 19.2334C13.1925 18.9547 10.7293 18.0785 8.5651 16.675C6.55162 15.3956 4.84454 13.6885 3.5651 11.675C2.15675 9.50105 1.2803 7.02588 1.00676 4.45005C0.985939 4.2196 1.01333 3.98735 1.08718 3.76807C1.16104 3.54879 1.27974 3.34729 1.43574 3.1764C1.59173 3.00551 1.7816 2.86897 1.99326 2.77548C2.20491 2.68199 2.43371 2.6336 2.6651 2.63338H5.1651C5.56952 2.6294 5.96159 2.77261 6.26823 3.03633C6.57487 3.30004 6.77516 3.66625 6.83176 4.06671C6.93728 4.86677 7.13297 5.65232 7.4151 6.40838C7.52722 6.70665 7.55148 7.03081 7.48502 7.34245C7.41856 7.65409 7.26415 7.94014 7.0401 8.16672L5.98176 9.22505C7.16806 11.3113 8.89548 13.0388 10.9818 14.225L12.0401 13.1667C12.2667 12.9427 12.5527 12.7883 12.8644 12.7218C13.176 12.6553 13.5002 12.6796 13.7984 12.7917C14.5545 13.0738 15.34 13.2695 16.1401 13.375C16.5449 13.4322 16.9146 13.6361 17.1789 13.948C17.4432 14.2599 17.5836 14.658 17.5734 15.0667Z" fill="#FD500A"/>
</svg>
