<svg width="16" height="16" viewBox="0 0 16 16" fill="none" xmlns="http://www.w3.org/2000/svg">
<path d="M16.0006 13.064C16.0006 13.352 15.9365 13.648 15.8003 13.936C15.6641 14.224 15.4878 14.496 15.2555 14.752C14.8629 15.184 14.4302 15.496 13.9415 15.696C13.4607 15.896 12.9399 16 12.379 16C11.5618 16 10.6884 15.808 9.76703 15.416C8.84561 15.024 7.92419 14.496 7.01079 13.832C6.08937 13.16 5.21603 12.416 4.38274 11.592C3.55747 10.76 2.81233 9.888 2.1473 8.976C1.49029 8.064 0.961479 7.152 0.576888 6.248C0.192296 5.336 0 4.464 0 3.632C0 3.088 0.0961479 2.568 0.288444 2.088C0.48074 1.6 0.785208 1.152 1.20986 0.752C1.72265 0.248 2.28351 0 2.87643 0C3.10077 0 3.32512 0.0480001 3.52542 0.144C3.73375 0.24 3.91803 0.384 4.06225 0.592L5.92111 3.208C6.06533 3.408 6.16949 3.592 6.2416 3.768C6.31371 3.936 6.35378 4.104 6.35378 4.256C6.35378 4.448 6.29769 4.64 6.18552 4.824C6.08136 5.008 5.92912 5.2 5.73683 5.392L5.12789 6.024C5.03975 6.112 4.99969 6.216 4.99969 6.344C4.99969 6.408 5.00771 6.464 5.02373 6.528C5.04777 6.592 5.0718 6.64 5.08783 6.688C5.23205 6.952 5.48043 7.296 5.83297 7.712C6.19353 8.128 6.57812 8.552 6.99476 8.976C7.42743 9.4 7.84407 9.792 8.26872 10.152C8.68536 10.504 9.02989 10.744 9.30231 10.888C9.34237 10.904 9.39045 10.928 9.44654 10.952C9.51063 10.976 9.57473 10.984 9.64684 10.984C9.78305 10.984 9.88721 10.936 9.97535 10.848L10.5843 10.248C10.7846 10.048 10.9769 9.896 11.1612 9.8C11.3455 9.688 11.5297 9.632 11.73 9.632C11.8823 9.632 12.0425 9.664 12.2188 9.736C12.3951 9.808 12.5794 9.912 12.7797 10.048L15.4317 11.928C15.6401 12.072 15.7843 12.24 15.8724 12.44C15.9525 12.64 16.0006 12.84 16.0006 13.064Z" fill="#FD500A"/>
</svg>
