<svg width="19" height="19" viewBox="0 0 19 19" fill="none" xmlns="http://www.w3.org/2000/svg">
<path d="M16.5734 14.0667V16.5667C16.5744 16.7988 16.5268 17.0285 16.4339 17.2412C16.3409 17.4538 16.2045 17.6447 16.0335 17.8016C15.8625 17.9585 15.6606 18.078 15.4407 18.1523C15.2209 18.2267 14.9879 18.2543 14.7568 18.2334C12.1925 17.9547 9.72926 17.0785 7.5651 15.675C5.55162 14.3956 3.84454 12.6885 2.5651 10.675C1.15675 8.50105 0.2803 6.02588 0.00676392 3.45005C-0.0140607 3.2196 0.0133264 2.98735 0.0871809 2.76807C0.161035 2.54879 0.27974 2.34729 0.435736 2.1764C0.591732 2.00551 0.781601 1.86897 0.993256 1.77548C1.20491 1.68199 1.43371 1.6336 1.6651 1.63338H4.1651C4.56952 1.6294 4.96159 1.77261 5.26823 2.03633C5.57487 2.30004 5.77516 2.66625 5.83176 3.06671C5.93728 3.86677 6.13297 4.65232 6.4151 5.40838C6.52722 5.70665 6.55148 6.03081 6.48502 6.34245C6.41856 6.65409 6.26415 6.94014 6.0401 7.16672L4.98176 8.22505C6.16806 10.3113 7.89548 12.0388 9.98176 13.225L11.0401 12.1667C11.2667 11.9427 11.5527 11.7883 11.8644 11.7218C12.176 11.6553 12.5002 11.6796 12.7984 11.7917C13.5545 12.0738 14.34 12.2695 15.1401 12.375C15.5449 12.4322 15.9146 12.6361 16.1789 12.948C16.4432 13.2599 16.5836 13.658 16.5734 14.0667Z" fill="white"/>
<path fill-rule="evenodd" clip-rule="evenodd" d="M9.98661 0.71174C10.0354 0.272614 10.4309 -0.0438215 10.87 0.00496188C12.7415 0.212864 14.4866 1.05092 15.8189 2.38154C17.1512 3.71215 17.9915 5.45623 18.2017 7.32741C18.251 7.76647 17.9351 8.1624 17.496 8.21173C17.057 8.26107 16.6611 7.94513 16.6117 7.50607C16.442 5.9956 15.7637 4.58773 14.6883 3.51362C13.6128 2.43951 12.2041 1.763 10.6934 1.59518C10.2543 1.5464 9.93783 1.15087 9.98661 0.71174ZM9.99652 3.98021C10.0811 3.54656 10.5013 3.2636 10.9349 3.34821C11.9051 3.5375 12.7968 4.01201 13.4958 4.711C14.1948 5.40998 14.6693 6.30165 14.8586 7.27188C14.9432 7.70553 14.6602 8.12566 14.2266 8.21027C13.7929 8.29487 13.3728 8.01192 13.2882 7.57827C13.1599 6.9206 12.8382 6.31618 12.3644 5.84237C11.8906 5.36856 11.2862 5.04691 10.6285 4.9186C10.1949 4.83399 9.91192 4.41386 9.99652 3.98021Z" fill="white"/>
</svg>
