<svg width="467" height="146" viewBox="0 0 467 146" fill="none" xmlns="http://www.w3.org/2000/svg">
<mask id="mask0_415_2414" style="mask-type:alpha" maskUnits="userSpaceOnUse" x="0" y="0" width="467" height="146">
<path d="M0 0H467V130C467 138.837 459.837 146 451 146H16C7.16344 146 0 138.837 0 130V0Z" fill="#C4C4C4"/>
</mask>
<g mask="url(#mask0_415_2414)">
<path d="M344.509 135.673V135.675C344.512 142.088 343.95 148.49 342.829 154.804C338.445 154.186 332.861 153.605 329.334 154.017L329.334 154.017C327.573 154.224 325.866 155.274 324.134 156.642C323.101 157.458 322.014 158.427 320.878 159.439C320.117 160.117 319.335 160.814 318.531 161.499C314.47 164.959 309.644 168.312 303.173 168.563C299.913 168.689 296.449 168.163 292.788 167.395C291.092 167.039 289.361 166.633 287.591 166.218C287.453 166.185 287.314 166.153 287.174 166.12C285.262 165.672 283.307 165.217 281.317 164.811C273.36 163.189 264.796 162.339 255.927 165.8C247.279 169.174 240.753 169.061 236.042 167.541C231.325 166.018 228.38 163.07 226.918 160.697C226.275 159.654 226.317 158.201 226.861 156.4C227.4 154.616 228.392 152.617 229.471 150.578C229.712 150.124 229.956 149.668 230.201 149.212C231.045 147.64 231.884 146.075 232.522 144.635C232.935 143.704 233.273 142.805 233.475 141.973C233.677 141.144 233.753 140.348 233.613 139.634C233.154 137.282 233.471 131.989 235.734 127.294C237.98 122.634 242.107 118.62 249.272 118.62C264.275 118.62 271.272 110.929 273.253 107.371C273.613 106.724 274.477 106.287 275.902 105.956C276.898 105.725 278.067 105.565 279.36 105.389C279.889 105.317 280.438 105.242 281.006 105.158C284.852 104.588 289.377 103.626 292.544 100.267C294.179 98.5334 294.677 96.4701 294.602 94.2865C294.529 92.1238 293.892 89.8025 293.23 87.5118C293.177 87.3278 293.124 87.1439 293.07 86.9603C292.453 84.8334 291.844 82.735 291.609 80.7252C291.355 78.5523 291.547 76.5434 292.609 74.7759C293.668 73.0121 295.807 71.5265 298.521 70.2985C301.22 69.0774 304.411 68.1439 307.481 67.4422C310.547 66.7413 313.474 66.2755 315.636 65.985C316.716 65.8398 317.604 65.7385 318.222 65.6735C318.526 65.6416 318.764 65.6184 318.927 65.6032C335.487 85.2009 344.553 110.028 344.509 135.673Z" fill="#EAEAEA" stroke="black"/>
<path d="M183.176 116.802C181.77 118.78 181.213 121.262 181.068 123.938C180.924 126.615 181.189 129.544 181.473 132.446C181.49 132.622 181.507 132.799 181.525 132.975C181.794 135.712 182.059 138.414 182.014 140.91C181.966 143.568 181.565 145.932 180.485 147.813C178.293 151.632 175.112 153.189 171.609 154.262C170.73 154.532 169.835 154.77 168.929 155.006C168.809 155.037 168.689 155.068 168.569 155.1C167.782 155.304 166.989 155.511 166.203 155.736C164.39 156.257 162.588 156.887 160.921 157.866C159.417 158.749 158.173 160.299 156.895 162.107C156.512 162.649 156.126 163.215 155.726 163.8C154.77 165.199 153.74 166.708 152.511 168.25C149.106 172.52 144.237 176.957 135.635 179.334C126.433 158.275 124.109 134.853 129 112.397C132.599 108.8 137.519 105.574 144.216 103.812C165.89 98.1176 171.164 96.845 179.665 98.223C182.648 98.7094 184.834 101.444 185.619 105.107C186.4 108.751 185.748 113.181 183.176 116.802Z" fill="#EAEAEA" stroke="black"/>
<path d="M265.123 76.3406L265.123 76.3406L265.163 76.3487L265.205 76.3501C271.663 76.5637 275.893 81.3366 277.656 86.0679C278.538 88.4342 278.775 90.723 278.402 92.3489C278.216 93.1587 277.888 93.7686 277.451 94.1582C277.026 94.5377 276.459 94.7448 275.703 94.6847C273.855 94.5376 271.422 94.9868 268.771 95.7122C266.107 96.4412 263.167 97.466 260.283 98.5083C259.56 98.7697 258.84 99.032 258.13 99.2911C255.999 100.069 253.945 100.818 252.094 101.428C249.611 102.247 247.562 102.791 246.219 102.835C243.45 102.927 238.624 102.091 234.242 100.632C232.057 99.9042 230.006 99.0295 228.394 98.0542C226.763 97.0679 225.66 96.0256 225.247 94.997C224.883 94.088 225.27 92.8968 226.47 91.4152C227.646 89.9641 229.479 88.3895 231.629 86.7978C234.85 84.4132 238.701 82.0452 241.957 80.0431C243.048 79.3725 244.072 78.743 244.983 78.1677C248.459 75.9728 253.457 75.4935 257.663 75.589C259.753 75.6364 261.621 75.8248 262.967 76.0014C263.639 76.0897 264.18 76.1749 264.552 76.2379C264.739 76.2694 264.882 76.2953 264.979 76.3132C265.027 76.3222 265.064 76.3291 265.088 76.3338L265.115 76.339L265.121 76.3403L265.123 76.3406L265.123 76.3406Z" fill="#EAEAEA" stroke="black"/>
<path d="M126.507 135.674L126.507 135.674C126.505 121.382 129.324 107.23 134.801 94.0253C140.278 80.8211 148.307 68.8233 158.429 58.7174C168.551 48.6114 180.568 40.5952 193.794 35.1266C207.019 29.658 221.194 26.8441 235.509 26.8457C238.28 26.8457 241.026 26.9485 243.747 27.154C260.689 28.4476 277.095 33.672 291.658 42.4112C306.222 51.1505 318.541 63.1632 327.635 77.4933L327.635 77.4935C338.685 94.8903 344.538 115.073 344.506 135.673V135.674C344.51 142.248 343.92 148.809 342.743 155.277C333.496 206.022 289.007 244.499 235.509 244.499C191.017 244.499 152.751 217.885 135.814 179.733C129.656 165.859 126.486 150.849 126.507 135.674Z" stroke="#414141"/>
<path d="M296.292 24.7773C285.665 24.7773 277.05 34.0275 277.05 45.436C277.05 56.8445 296.292 75.0811 296.292 75.0811C296.292 75.0811 315.532 56.8445 315.532 45.436C315.532 34.0275 306.919 24.7773 296.292 24.7773ZM296.292 55.5452C294.049 55.5457 291.857 54.8821 289.992 53.6384C288.127 52.3946 286.673 50.6266 285.814 48.558C284.956 46.4893 284.731 44.2129 285.168 42.0166C285.605 39.8203 286.685 37.8028 288.271 36.2192C289.856 34.6357 291.877 33.5572 294.077 33.1201C296.276 32.6831 298.556 32.9072 300.629 33.764C302.701 34.6208 304.472 36.0719 305.718 37.9337C306.964 39.7956 307.629 41.9845 307.629 44.2238C307.631 45.711 307.34 47.184 306.771 48.5584C306.202 49.9328 305.367 51.1816 304.314 52.2333C303.261 53.285 302.01 54.1189 300.633 54.6872C299.257 55.2555 297.782 55.5471 296.292 55.5452Z" fill="#FD500A"/>
<path d="M174.489 58.5894C163.086 58.5894 153.846 68.5098 153.846 80.753C153.846 92.9963 174.489 112.554 174.489 112.554C174.489 112.554 195.13 92.9914 195.13 80.753C195.13 68.5146 185.889 58.5894 174.489 58.5894ZM174.489 91.5977C172.083 91.5982 169.731 90.8864 167.731 89.5523C165.73 88.2182 164.171 86.3217 163.25 84.1027C162.329 81.8837 162.087 79.4419 162.556 77.086C163.025 74.7301 164.184 72.566 165.885 70.8674C167.586 69.1688 169.753 68.0119 172.113 67.5432C174.472 67.0744 176.918 67.3147 179.141 68.2338C181.363 69.1529 183.263 70.7094 184.6 72.7066C185.936 74.7037 186.65 77.0517 186.65 79.4537C186.652 81.049 186.34 82.6291 185.729 84.1035C185.119 85.5778 184.224 86.9175 183.094 88.0457C181.964 89.1738 180.622 90.0683 179.146 90.6778C177.669 91.2873 176.087 91.6 174.489 91.5977Z" fill="#FD500A"/>
<path d="M181.127 56.1958H181.023C180.923 56.1824 180.827 56.1496 180.741 56.0991C180.654 56.0486 180.578 55.9815 180.518 55.9017C180.457 55.8219 180.413 55.7309 180.388 55.6339C180.363 55.537 180.357 55.436 180.371 55.3368C180.371 55.3151 180.446 54.7876 180.601 53.8149C180.616 53.7156 180.651 53.6203 180.704 53.5345C180.756 53.4487 180.825 53.374 180.906 53.3149C180.988 53.2557 181.08 53.2133 181.178 53.1899C181.276 53.1665 181.377 53.1627 181.477 53.1786C181.576 53.1946 181.671 53.23 181.757 53.2828C181.842 53.3357 181.917 53.4049 181.976 53.4865C182.034 53.5682 182.076 53.6606 182.099 53.7585C182.122 53.8563 182.125 53.9578 182.108 54.0569C181.958 55.0102 181.883 55.5425 181.883 55.5474C181.856 55.728 181.764 55.8928 181.626 56.0118C181.487 56.1308 181.31 56.1961 181.127 56.1958Z" fill="#30545D"/>
<path d="M181.522 51.2671C181.477 51.2694 181.432 51.2694 181.386 51.2671C181.287 51.2553 181.193 51.2307 181.108 51.1948C181.024 51.1589 180.951 51.1123 180.893 51.0578C180.836 51.0032 180.796 50.9417 180.774 50.8768C180.753 50.8119 180.751 50.7449 180.769 50.6795C180.949 50.0149 181.143 49.3294 181.347 48.6439C181.386 48.5122 181.503 48.396 181.672 48.3211C181.84 48.2461 182.047 48.2184 182.247 48.2442C182.446 48.27 182.622 48.347 182.735 48.4584C182.849 48.5698 182.891 48.7064 182.852 48.8382C182.648 49.5189 182.456 50.1995 182.276 50.8577C182.242 50.9732 182.148 51.0772 182.011 51.1519C181.873 51.2267 181.701 51.2674 181.522 51.2671ZM182.723 47.2168C182.67 47.217 182.617 47.2132 182.565 47.2055C182.466 47.1922 182.373 47.166 182.289 47.1286C182.206 47.0913 182.135 47.0434 182.08 46.9877C182.025 46.932 181.987 46.8697 181.968 46.8043C181.95 46.7389 181.951 46.6718 181.972 46.6067C182.188 45.9373 182.412 45.2566 182.643 44.5856C182.665 44.5208 182.706 44.4595 182.764 44.4052C182.822 44.3509 182.896 44.3047 182.981 44.2692C183.066 44.2337 183.161 44.2097 183.26 44.1984C183.359 44.1871 183.461 44.1889 183.559 44.2035C183.657 44.2182 183.75 44.2454 183.832 44.2838C183.914 44.3221 183.984 44.3708 184.038 44.427C184.092 44.4832 184.128 44.5458 184.145 44.6113C184.162 44.6768 184.16 44.7439 184.137 44.8087C183.909 45.475 183.685 46.1508 183.472 46.8154C183.436 46.929 183.342 47.031 183.205 47.1041C183.069 47.1772 182.899 47.217 182.723 47.2168ZM184.101 43.1954C183.985 43.1952 183.871 43.1778 183.767 43.1444C183.662 43.111 183.571 43.0624 183.499 43.0023C183.427 42.9423 183.377 42.8723 183.352 42.7975C183.327 42.7228 183.328 42.6453 183.355 42.5709C183.598 41.9014 183.856 41.2272 184.113 40.5642C184.137 40.4987 184.18 40.4371 184.24 40.3827C184.3 40.3284 184.375 40.2825 184.462 40.2478C184.55 40.213 184.646 40.1901 184.747 40.1803C184.848 40.1706 184.95 40.1742 185.049 40.1909C185.148 40.2077 185.24 40.2373 185.321 40.2779C185.402 40.3186 185.47 40.3695 185.521 40.4277C185.572 40.486 185.605 40.5503 185.618 40.617C185.63 40.6837 185.623 40.7514 185.596 40.8162C185.353 41.4744 185.088 42.1438 184.845 42.8085C184.804 42.9186 184.709 43.0165 184.574 43.0866C184.439 43.1567 184.273 43.195 184.101 43.1954ZM185.654 39.2044C185.586 39.2042 185.518 39.1983 185.452 39.1868C185.355 39.1693 185.264 39.1394 185.185 39.0987C185.105 39.058 185.039 39.0074 184.989 38.9497C184.939 38.892 184.907 38.8283 184.894 38.7624C184.881 38.6965 184.889 38.6296 184.915 38.5655C185.19 37.8977 185.477 37.2282 185.761 36.5733C185.784 36.5061 185.829 36.4427 185.89 36.3872C185.952 36.3316 186.031 36.285 186.121 36.2501C186.211 36.2152 186.311 36.1928 186.414 36.1843C186.518 36.1758 186.623 36.1813 186.723 36.2005C186.824 36.2198 186.917 36.2523 186.997 36.2962C187.078 36.34 187.144 36.3943 187.192 36.4556C187.24 36.5169 187.268 36.5841 187.275 36.6529C187.282 36.7217 187.268 36.7907 187.234 36.8558C186.949 37.498 186.665 38.169 186.393 38.832C186.348 38.9387 186.251 39.0329 186.118 39.1001C185.985 39.1673 185.822 39.204 185.654 39.2044ZM187.389 35.2472C187.313 35.2468 187.238 35.2393 187.166 35.2248C187.069 35.2053 186.98 35.1735 186.902 35.1312C186.825 35.0889 186.76 35.0369 186.713 34.9781C186.666 34.9194 186.637 34.855 186.627 34.7888C186.618 34.7226 186.628 34.6558 186.658 34.5922C186.966 33.9308 187.282 33.2678 187.603 32.6209C187.635 32.5576 187.685 32.4992 187.752 32.4488C187.818 32.3984 187.898 32.3572 187.989 32.3273C188.079 32.2975 188.177 32.2798 188.278 32.275C188.378 32.2703 188.479 32.2787 188.575 32.2998C188.671 32.3209 188.76 32.3542 188.836 32.3979C188.912 32.4416 188.974 32.4947 189.02 32.5544C189.065 32.614 189.092 32.6789 189.099 32.7454C189.106 32.8119 189.093 32.8787 189.061 32.9419C188.745 33.5841 188.429 34.2423 188.123 34.8973C188.073 34.9997 187.975 35.0889 187.843 35.1519C187.711 35.2149 187.552 35.2483 187.389 35.2472ZM189.334 31.3302C189.251 31.33 189.169 31.3208 189.09 31.3029C188.899 31.2588 188.742 31.1665 188.654 31.0461C188.566 30.9258 188.553 30.7872 188.619 30.6607C188.962 30.0041 189.316 29.3492 189.671 28.7118C189.742 28.5858 189.885 28.4834 190.069 28.4271C190.254 28.3708 190.465 28.3652 190.656 28.4116C190.846 28.458 191.001 28.5526 191.087 28.6745C191.172 28.7965 191.18 28.9358 191.11 29.0618C190.758 29.6927 190.405 30.3461 190.065 30.9882C190.012 31.0898 189.912 31.1777 189.779 31.2392C189.646 31.3007 189.486 31.3325 189.324 31.3302H189.334ZM280.016 30.1278C279.87 30.1279 279.726 30.1002 279.602 30.0478C279.478 29.9954 279.38 29.9206 279.319 29.8324C278.899 29.2255 278.451 28.6027 277.99 27.983C277.941 27.9232 277.912 27.8576 277.903 27.7901C277.894 27.7226 277.906 27.6546 277.937 27.5902C277.969 27.5257 278.019 27.4661 278.086 27.4148C278.154 27.3636 278.236 27.3218 278.328 27.2919C278.42 27.262 278.52 27.2446 278.622 27.2407C278.725 27.2369 278.827 27.2467 278.924 27.2695C279.02 27.2924 279.109 27.3278 279.184 27.3737C279.26 27.4196 279.32 27.475 279.363 27.5367C279.832 28.166 280.284 28.7953 280.712 29.4118C280.796 29.5336 280.803 29.6724 280.733 29.7979C280.662 29.9234 280.519 30.0253 280.335 30.0812C280.232 30.1129 280.12 30.1288 280.007 30.1278H280.016ZM191.489 27.4661C191.394 27.4663 191.3 27.4543 191.212 27.4308C191.023 27.3817 190.872 27.2852 190.79 27.1625C190.709 27.0398 190.704 26.9008 190.777 26.7758C191.161 26.1336 191.555 25.4915 191.951 24.859C192.029 24.7351 192.179 24.6368 192.367 24.5858C192.555 24.5347 192.766 24.5351 192.953 24.5869C193.141 24.6386 193.29 24.7374 193.367 24.8616C193.444 24.9858 193.444 25.1252 193.365 25.2491C192.972 25.8687 192.583 26.5061 192.204 27.145C192.147 27.2407 192.047 27.3227 191.917 27.38C191.788 27.4374 191.635 27.4674 191.48 27.4661H191.489ZM277.265 26.429C277.126 26.4292 276.988 26.4039 276.869 26.3561C276.749 26.3082 276.652 26.2396 276.587 26.1577C276.101 25.5509 275.615 24.9457 275.114 24.3549C275.06 24.2967 275.025 24.2319 275.009 24.1644C274.994 24.0969 275 24.028 275.026 23.962C275.052 23.8959 275.098 23.834 275.161 23.7801C275.225 23.7261 275.304 23.6812 275.394 23.648C275.485 23.6148 275.584 23.594 275.687 23.5869C275.79 23.5798 275.894 23.5866 275.992 23.6067C276.091 23.6269 276.183 23.66 276.262 23.7042C276.34 23.7483 276.405 23.8026 276.451 23.8636C276.954 24.4608 277.457 25.0741 277.943 25.6873C278.038 25.8064 278.056 25.9452 277.996 26.0734C277.935 26.2016 277.8 26.3087 277.62 26.3712C277.508 26.4098 277.382 26.4296 277.256 26.429H277.265ZM193.893 23.671C193.785 23.6709 193.679 23.6556 193.582 23.6261C193.396 23.5713 193.252 23.4702 193.179 23.345C193.107 23.2198 193.113 23.0806 193.195 22.9582C193.625 22.3161 194.07 21.6868 194.513 21.0735C194.6 20.9524 194.757 20.8592 194.949 20.8145C195.14 20.7698 195.351 20.7772 195.534 20.8351C195.718 20.8931 195.859 20.9967 195.927 21.1233C195.994 21.2499 195.983 21.3891 195.895 21.5102C195.458 22.1154 195.018 22.7415 194.593 23.3708C194.532 23.4612 194.432 23.5379 194.306 23.5912C194.18 23.6446 194.033 23.6723 193.883 23.671H193.893ZM274.213 22.8282C274.08 22.8283 273.949 22.8053 273.833 22.7617C273.718 22.718 273.622 22.6552 273.554 22.5794C273.027 21.9918 272.485 21.4043 271.94 20.8327C271.887 20.7765 271.851 20.7138 271.834 20.6482C271.817 20.5827 271.82 20.5157 271.843 20.4509C271.865 20.3861 271.907 20.3249 271.965 20.2707C272.023 20.2166 272.097 20.1705 272.182 20.1352C272.268 20.0999 272.362 20.076 272.462 20.0649C272.561 20.0539 272.662 20.0558 272.76 20.0706C272.858 20.0854 272.951 20.1129 273.033 20.1514C273.115 20.1899 273.185 20.2387 273.238 20.2949C273.788 20.8729 274.339 21.4685 274.871 22.0608C274.923 22.1181 274.957 22.1814 274.971 22.2472C274.985 22.3131 274.979 22.3801 274.954 22.4446C274.929 22.509 274.885 22.5695 274.825 22.6227C274.764 22.6758 274.688 22.7206 274.602 22.7544C274.485 22.802 274.35 22.8275 274.213 22.8282ZM196.573 19.9546C196.452 19.9541 196.332 19.9349 196.224 19.8984C196.134 19.868 196.054 19.8263 195.989 19.7755C195.924 19.7248 195.874 19.666 195.844 19.6026C195.813 19.5392 195.802 19.4725 195.81 19.4061C195.819 19.3398 195.847 19.2753 195.893 19.2162C196.379 18.5949 196.865 17.9784 197.373 17.3876C197.422 17.3296 197.488 17.2784 197.566 17.2371C197.645 17.1958 197.735 17.1651 197.832 17.1469C197.929 17.1286 198.03 17.1231 198.13 17.1307C198.23 17.1382 198.327 17.1587 198.414 17.191C198.502 17.2233 198.58 17.2666 198.642 17.3186C198.705 17.3707 198.751 17.4303 198.779 17.4942C198.807 17.5581 198.815 17.6249 198.803 17.6909C198.792 17.7569 198.761 17.8208 198.712 17.8789C198.226 18.4616 197.74 19.0668 197.254 19.6801C197.19 19.7619 197.094 19.8307 196.975 19.879C196.856 19.9274 196.72 19.9535 196.581 19.9546H196.573ZM270.893 19.3414C270.767 19.3414 270.643 19.3209 270.532 19.2817C270.421 19.2425 270.326 19.1858 270.256 19.1166C269.68 18.5483 269.087 17.9816 268.497 17.4358C268.379 17.3266 268.331 17.1909 268.365 17.0586C268.398 16.9263 268.51 16.8082 268.675 16.7302C268.841 16.6523 269.046 16.621 269.246 16.6431C269.447 16.6653 269.626 16.739 269.743 16.8482C270.341 17.4021 270.944 17.972 271.53 18.5547C271.607 18.6309 271.651 18.7194 271.658 18.8109C271.665 18.9024 271.634 18.9934 271.568 19.0741C271.503 19.1549 271.406 19.2224 271.287 19.2695C271.168 19.3165 271.032 19.3414 270.893 19.3414ZM199.602 16.3634C199.463 16.363 199.327 16.338 199.208 16.2912C199.034 16.2216 198.909 16.1094 198.861 15.9791C198.812 15.8488 198.843 15.7111 198.948 15.5961C199.495 14.9957 200.059 14.4033 200.622 13.8382C200.678 13.7827 200.749 13.7348 200.832 13.6975C200.915 13.6601 201.009 13.6339 201.107 13.6204C201.206 13.6069 201.307 13.6064 201.406 13.6188C201.505 13.6313 201.599 13.6564 201.683 13.6929C201.767 13.7294 201.84 13.7764 201.896 13.8314C201.953 13.8864 201.993 13.9481 202.013 14.0132C202.033 14.0783 202.034 14.1454 202.015 14.2106C201.996 14.2759 201.958 14.3381 201.903 14.3937C201.349 14.9475 200.797 15.5286 200.258 16.1178C200.19 16.1929 200.094 16.2551 199.979 16.2981C199.864 16.3412 199.734 16.3637 199.602 16.3634ZM267.267 15.999C267.149 15.999 267.033 15.9811 266.927 15.9465C266.821 15.912 266.729 15.8619 266.657 15.7999C266.025 15.2557 265.379 14.7179 264.737 14.1946C264.668 14.1438 264.615 14.0843 264.582 14.0198C264.549 13.9552 264.536 13.8868 264.544 13.8188C264.551 13.7508 264.58 13.6846 264.628 13.624C264.675 13.5635 264.741 13.51 264.821 13.4666C264.9 13.4233 264.992 13.391 265.092 13.3718C265.191 13.3526 265.295 13.3469 265.397 13.3549C265.5 13.3629 265.599 13.3845 265.688 13.4185C265.778 13.4524 265.856 13.498 265.918 13.5524C266.572 14.0774 267.231 14.6248 267.862 15.1787C267.949 15.2535 268.003 15.3428 268.017 15.4367C268.031 15.5305 268.006 15.6252 267.943 15.7098C267.88 15.7945 267.782 15.8658 267.661 15.9158C267.54 15.9658 267.4 15.9924 267.257 15.9926L267.267 15.999ZM203.028 12.9264C202.868 12.9267 202.711 12.8929 202.581 12.83C202.5 12.7913 202.431 12.7423 202.378 12.6859C202.325 12.6295 202.29 12.5668 202.274 12.5013C202.258 12.4358 202.261 12.3689 202.284 12.3044C202.308 12.2399 202.35 12.179 202.409 12.1253C203.033 11.5538 203.675 11.0015 204.316 10.467C204.379 10.4151 204.457 10.3719 204.545 10.3399C204.633 10.3079 204.73 10.2876 204.83 10.2803C204.93 10.273 205.031 10.2788 205.128 10.2973C205.224 10.3159 205.315 10.3468 205.393 10.3883C205.472 10.4298 205.537 10.4812 205.585 10.5394C205.634 10.5976 205.665 10.6615 205.676 10.7276C205.687 10.7936 205.678 10.8605 205.65 10.9243C205.622 10.9881 205.575 11.0476 205.512 11.0995C204.888 11.6148 204.261 12.159 203.651 12.7177C203.579 12.7806 203.486 12.8316 203.379 12.8667C203.273 12.9019 203.155 12.9201 203.036 12.9199L203.028 12.9264ZM263.301 12.822C263.193 12.8229 263.087 12.8091 262.988 12.7815C262.89 12.7538 262.801 12.713 262.727 12.6615C262.037 12.1478 261.33 11.6453 260.63 11.1685C260.488 11.0723 260.41 10.9429 260.413 10.8087C260.416 10.6746 260.5 10.5468 260.646 10.4533C260.791 10.3599 260.987 10.3085 261.19 10.3104C261.393 10.3124 261.587 10.3675 261.728 10.4637C262.457 10.9454 263.165 11.4639 263.872 11.9872C263.939 12.0369 263.99 12.0947 264.023 12.1575C264.056 12.2203 264.07 12.2867 264.064 12.3531C264.059 12.4194 264.033 12.4844 263.989 12.5442C263.945 12.604 263.884 12.6575 263.809 12.7016C263.668 12.7782 263.49 12.8187 263.308 12.8156L263.301 12.822ZM258.958 9.86815C258.762 9.86869 258.574 9.81921 258.433 9.7301C257.674 9.26133 256.904 8.80541 256.138 8.37678C255.983 8.29014 255.887 8.16637 255.87 8.03269C255.853 7.89902 255.917 7.7664 256.049 7.664C256.18 7.56161 256.367 7.49782 256.569 7.48668C256.772 7.47554 256.973 7.51796 257.128 7.60461C257.913 8.04447 258.705 8.51164 259.483 8.99324C259.63 9.08553 259.716 9.21271 259.722 9.34692C259.728 9.48113 259.653 9.61141 259.514 9.70923C259.443 9.75783 259.358 9.7964 259.263 9.82261C259.169 9.84882 259.067 9.86213 258.965 9.86174L258.958 9.86815ZM206.927 9.71886C206.779 9.71931 206.634 9.6913 206.509 9.63824C206.385 9.58517 206.286 9.50934 206.226 9.42C206.166 9.33066 206.146 9.23166 206.17 9.13507C206.193 9.03849 206.258 8.94848 206.358 8.87605C207.073 8.34949 207.816 7.84059 208.545 7.36541C208.69 7.27153 208.886 7.21955 209.089 7.2209C209.292 7.22226 209.486 7.27683 209.628 7.37263C209.77 7.46843 209.849 7.5976 209.847 7.73172C209.845 7.86584 209.762 7.99394 209.617 8.08782C208.907 8.54856 208.195 9.03979 207.503 9.5503C207.43 9.602 207.342 9.64314 207.244 9.67106C207.146 9.69898 207.041 9.71307 206.934 9.71244L206.927 9.71886ZM254.209 7.2129C254.043 7.21303 253.881 7.1769 253.749 7.11015C252.923 6.69918 252.082 6.30748 251.249 5.94146C251.16 5.90645 251.082 5.85989 251.021 5.80459C250.961 5.74928 250.917 5.68639 250.894 5.61971C250.871 5.55303 250.869 5.48396 250.887 5.41666C250.906 5.34937 250.945 5.28525 251.002 5.22819C251.059 5.17113 251.133 5.12231 251.219 5.08469C251.306 5.04708 251.403 5.02144 251.505 5.00933C251.607 4.99722 251.711 4.99889 251.812 5.01424C251.913 5.0296 252.008 5.05831 252.092 5.09865C252.952 5.4743 253.82 5.87885 254.671 6.30427C254.798 6.36823 254.892 6.45705 254.94 6.55821C254.987 6.65938 254.985 6.76779 254.934 6.86814C254.883 6.9685 254.785 7.05576 254.655 7.11761C254.525 7.17946 254.369 7.21279 254.209 7.2129ZM211.379 6.84687C211.223 6.84508 211.072 6.81203 210.945 6.7521C210.819 6.69218 210.722 6.60822 210.67 6.51137C210.617 6.41452 210.61 6.30936 210.65 6.20986C210.69 6.11037 210.775 6.02123 210.893 5.95429C211.71 5.49516 212.55 5.06172 213.389 4.66198C213.554 4.58364 213.759 4.55181 213.96 4.57349C214.16 4.59516 214.34 4.66858 214.458 4.77758C214.577 4.88657 214.625 5.02223 214.592 5.15469C214.559 5.28716 214.448 5.40559 214.283 5.48393C213.476 5.866 212.67 6.2866 211.885 6.72647C211.742 6.80262 211.562 6.84248 211.379 6.83885V6.84687ZM249.018 4.95095C248.886 4.95098 248.756 4.9283 248.641 4.88513C247.747 4.54961 246.835 4.24299 245.931 3.95563C245.836 3.92921 245.75 3.8903 245.678 3.84126C245.606 3.79222 245.549 3.73405 245.512 3.67028C245.475 3.60651 245.458 3.53845 245.462 3.47021C245.466 3.40196 245.491 3.33494 245.535 3.2732C245.579 3.21146 245.642 3.15628 245.719 3.11097C245.797 3.06566 245.887 3.03118 245.985 3.00959C246.083 2.988 246.187 2.97975 246.29 2.98536C246.393 2.99096 246.493 3.01029 246.585 3.04219C247.521 3.33276 248.468 3.65704 249.397 4.0054C249.544 4.06052 249.659 4.14628 249.725 4.24928C249.79 4.35228 249.802 4.46672 249.759 4.57473C249.716 4.68274 249.62 4.77824 249.485 4.8463C249.351 4.91436 249.187 4.95116 249.018 4.95095ZM216.427 4.4549C216.259 4.45505 216.096 4.41874 215.962 4.35157C215.829 4.28441 215.732 4.1901 215.688 4.08318C215.643 3.97625 215.653 3.86263 215.716 3.75981C215.779 3.657 215.891 3.57069 216.036 3.51416C216.959 3.15296 217.909 2.82385 218.855 2.53328C218.946 2.50535 219.045 2.48957 219.145 2.48684C219.246 2.4841 219.346 2.49447 219.441 2.51735C219.535 2.54023 219.622 2.57518 219.696 2.62019C219.77 2.66521 219.83 2.71941 219.872 2.77971C219.914 2.84 219.938 2.9052 219.942 2.9716C219.946 3.03799 219.931 3.10428 219.896 3.16666C219.861 3.22905 219.808 3.28631 219.74 3.33519C219.672 3.38408 219.59 3.42362 219.499 3.45155C218.6 3.72767 217.696 4.04071 216.825 4.38426C216.704 4.42874 216.566 4.45039 216.427 4.44687V4.4549ZM243.391 3.19951C243.299 3.19898 243.208 3.18812 243.122 3.1674C242.167 2.92981 241.192 2.71951 240.227 2.54132C240.13 2.5235 240.04 2.49325 239.96 2.45231C239.881 2.41136 239.815 2.36053 239.766 2.30269C239.716 2.24485 239.685 2.18115 239.672 2.11522C239.66 2.04929 239.668 1.98242 239.695 1.91844C239.722 1.85445 239.768 1.7946 239.83 1.7423C239.892 1.69001 239.969 1.64629 240.056 1.61364C240.144 1.58099 240.24 1.56007 240.34 1.55204C240.44 1.54401 240.541 1.54905 240.638 1.56686C241.646 1.75308 242.662 1.97141 243.661 2.22024C243.829 2.26182 243.97 2.34108 244.058 2.44419C244.147 2.54731 244.178 2.6677 244.146 2.78435C244.114 2.901 244.021 3.00648 243.883 3.08237C243.745 3.15825 243.571 3.19971 243.391 3.19951ZM222.058 2.73075C221.877 2.72996 221.703 2.68693 221.565 2.60928C221.428 2.53162 221.336 2.42436 221.307 2.30649C221.278 2.18861 221.313 2.06773 221.406 1.96526C221.499 1.8628 221.644 1.78536 221.815 1.74666C222.819 1.51933 223.841 1.32907 224.877 1.17676C225.076 1.14781 225.283 1.17214 225.455 1.24439C225.626 1.31665 225.747 1.43091 225.791 1.56204C225.835 1.69318 225.798 1.83045 225.689 1.94365C225.579 2.05685 225.406 2.13671 225.208 2.16566C224.221 2.3081 223.248 2.48657 222.291 2.70024C222.216 2.71768 222.137 2.7269 222.058 2.72753V2.73075ZM237.403 2.09824C237.357 2.10127 237.311 2.10127 237.265 2.09824C236.271 1.97783 235.26 1.88793 234.258 1.83013C234.155 1.82743 234.053 1.81091 233.96 1.78154C233.866 1.75218 233.783 1.7106 233.714 1.65931C233.646 1.60802 233.594 1.54809 233.561 1.48315C233.529 1.4182 233.517 1.34959 233.526 1.28146C233.535 1.21333 233.564 1.14709 233.613 1.08676C233.662 1.02642 233.728 0.973253 233.809 0.930452C233.89 0.887652 233.983 0.85611 234.083 0.837741C234.182 0.819371 234.287 0.814558 234.389 0.823582C235.439 0.88298 236.499 0.984116 237.549 1.10291C237.737 1.12535 237.906 1.19362 238.022 1.29424C238.138 1.39487 238.193 1.52055 238.175 1.6465C238.158 1.77245 238.07 1.88953 237.928 1.97464C237.787 2.05975 237.602 2.10671 237.41 2.10626L237.403 2.09824ZM228.109 1.85261C227.915 1.85127 227.728 1.80087 227.587 1.71169C227.447 1.62251 227.363 1.50127 227.353 1.37269C227.343 1.24411 227.408 1.11786 227.534 1.01971C227.66 0.921549 227.838 0.858876 228.032 0.844453C228.355 0.821978 228.681 0.802706 229.004 0.786652C229.733 0.75294 230.484 0.733679 231.215 0.730469C231.316 0.730469 231.415 0.743553 231.508 0.768966C231.601 0.794379 231.686 0.831623 231.757 0.87858C231.828 0.925538 231.884 0.98129 231.923 1.04264C231.961 1.104 231.981 1.16975 231.981 1.23616C231.981 1.30257 231.961 1.36832 231.923 1.42968C231.884 1.49103 231.828 1.54677 231.757 1.59373C231.686 1.64069 231.601 1.67794 231.508 1.70335C231.415 1.72877 231.316 1.74184 231.215 1.74184C230.516 1.74184 229.803 1.76272 229.099 1.79643C228.795 1.81088 228.486 1.82854 228.18 1.84941L228.109 1.85261Z" fill="#414141"/>
</g>
</svg>
