<svg width="76" height="76" viewBox="0 0 76 76" fill="none" xmlns="http://www.w3.org/2000/svg">
<path d="M12.2215 62.2603C12.1671 62.2603 12.115 62.2388 12.0766 62.2004C12.0382 62.1621 12.0166 62.1101 12.0166 62.0559V58.621C12.0166 58.5667 12.0382 58.5147 12.0766 58.4764C12.115 58.438 12.1671 58.4165 12.2215 58.4165C12.2758 58.4165 12.3279 58.438 12.3663 58.4764C12.4047 58.5147 12.4263 58.5667 12.4263 58.621V62.0559C12.4263 62.1101 12.4047 62.1621 12.3663 62.2004C12.3279 62.2388 12.2758 62.2603 12.2215 62.2603Z" fill="#414141"/>
<path d="M21.2139 32.9209C16.4614 34.6077 15.4576 25.6013 19.8517 27.0632C24.2457 28.5251 22.3816 20.6534 22.3816 20.6534C17.3832 3.61186 32.7367 0.360979 32.7367 0.360979C32.7367 0.360979 34.3653 -0.640866 36.6186 2.4669C36.6186 2.4669 41.4018 0.412093 44.7307 6.54583C48.0595 12.6796 44.2288 22.2073 45.97 24.9982C47.8546 27.9935 49.6573 24.7426 50.7737 27.4721C51.716 29.7723 47.1172 32.3791 45.97 32.4098L21.2139 32.9209Z" fill="#414141"/>
<path d="M20.0565 33.3397C18.8581 33.3397 18.1104 32.6241 17.7212 32.113C16.697 30.7533 16.5331 28.6372 17.3627 27.4922C17.9158 26.7255 18.8172 26.5006 19.9131 26.8686C20.7325 27.1344 21.3675 27.0833 21.7977 26.6846C23.2317 25.3761 22.2177 20.878 22.1767 20.7042C20.5891 15.2554 20.8861 10.6347 23.078 6.97488C26.202 1.7612 32.1836 0.278879 32.665 0.166427C32.9211 0.0335298 34.5496 -0.651404 36.6903 2.22123C37.5822 1.93286 38.5299 1.8593 39.4558 2.00655C40.9819 2.24168 43.1533 3.20263 44.915 6.44329C46.8816 10.0724 46.3797 14.8772 45.9802 18.7312C45.6934 21.4403 45.4579 23.7813 46.1441 24.8854C47.0454 26.3268 47.8956 26.2246 48.7047 26.1224C49.5139 26.0201 50.364 25.9281 50.9683 27.4002C51.2346 28.0545 51.1219 28.7701 50.6303 29.5266C49.5548 31.1725 46.8918 32.5935 45.9802 32.6139L21.2549 33.1251C20.8704 33.2635 20.4652 33.3361 20.0565 33.3397ZM18.9503 27.1038C18.7062 27.0937 18.4635 27.1457 18.2449 27.2547C18.0264 27.3638 17.8392 27.5264 17.7007 27.7274C16.9838 28.7292 17.1476 30.6613 18.049 31.8676C18.4894 32.4401 19.4727 33.3295 21.1524 32.7264H21.2139L45.97 32.2152C46.687 32.1948 49.2373 30.9271 50.2821 29.3221C50.702 28.6781 50.8044 28.0954 50.5893 27.5638C50.1079 26.3882 49.5344 26.4495 48.7559 26.5415C47.9775 26.6335 46.8304 26.7664 45.7959 25.1103C45.0277 23.8938 45.2837 21.4914 45.5705 18.7005C45.97 14.8976 46.4616 10.1644 44.5565 6.64775C43.225 4.20447 41.4428 2.7426 39.3943 2.41547C37.8579 2.18034 36.7108 2.66082 36.7005 2.67104L36.5469 2.73238L36.4547 2.59948C34.3345 -0.324271 32.8596 0.534452 32.8494 0.544674L32.8186 0.565122H32.7879C32.7264 0.585567 26.5707 1.94521 23.4263 7.19978C21.2958 10.7574 21.0091 15.2759 22.5762 20.6122C22.6274 20.8065 23.7131 25.4988 22.0743 26.9913C21.5314 27.4922 20.753 27.574 19.78 27.2571C19.5139 27.1604 19.2335 27.1086 18.9503 27.1038Z" fill="#414141"/>
<path d="M42.5596 12.0145H42.4981C36.8955 10.4197 32.8599 5.61494 32.819 5.56383C32.7836 5.5218 32.7665 5.4675 32.7713 5.41286C32.7761 5.35822 32.8025 5.30772 32.8446 5.27248C32.8867 5.23723 32.9411 5.22012 32.9958 5.22491C33.0506 5.22971 33.1012 5.25601 33.1365 5.29803C33.1774 5.34915 37.131 10.0619 42.6108 11.6158C42.6372 11.6229 42.6619 11.6351 42.6835 11.6519C42.7051 11.6687 42.7231 11.6896 42.7365 11.7134C42.7498 11.7372 42.7583 11.7635 42.7613 11.7906C42.7644 11.8177 42.7619 11.8452 42.7542 11.8714C42.7426 11.9136 42.7171 11.9508 42.6818 11.9767C42.6465 12.0027 42.6034 12.016 42.5596 12.0145Z" fill="#414141"/>
<path d="M40.2445 18.3326H40.1933C40.1663 18.33 40.1402 18.3222 40.1163 18.3095C40.0924 18.2967 40.0713 18.2794 40.0541 18.2585C40.037 18.2376 40.0242 18.2135 40.0164 18.1876C40.0086 18.1617 40.0061 18.1346 40.0089 18.1077C40.0102 18.0812 40.0168 18.0553 40.0285 18.0315C40.0401 18.0077 40.0565 17.9866 40.0767 17.9693C40.0968 17.9521 40.1203 17.9392 40.1456 17.9313C40.171 17.9235 40.1976 17.9209 40.224 17.9237C40.2957 17.9237 42.0062 18.0259 42.3135 15.2351C42.4876 13.7016 42.0574 13.2416 41.6477 12.802C41.238 12.3624 40.8488 11.9535 40.9615 10.7983C40.9669 10.7441 40.9937 10.6942 41.036 10.6597C41.0782 10.6252 41.1325 10.6089 41.1868 10.6143C41.2411 10.6197 41.2911 10.6465 41.3257 10.6886C41.3602 10.7308 41.3766 10.785 41.3712 10.8392C41.279 11.8104 41.5863 12.1375 41.9448 12.526C42.3032 12.9145 42.9076 13.5585 42.7232 15.2862C42.3954 18.1895 40.5825 18.3326 40.2445 18.3326Z" fill="#414141"/>
<path d="M37.7866 12.2704H37.7559L35.4308 12.0659C35.362 12.0582 35.2988 12.0239 35.2549 11.9705C35.2109 11.917 35.1895 11.8486 35.1953 11.7797C35.1978 11.7464 35.207 11.7141 35.2225 11.6845C35.2379 11.655 35.2592 11.6289 35.2851 11.6079C35.311 11.5868 35.3409 11.5713 35.373 11.5621C35.4051 11.553 35.4387 11.5505 35.4718 11.5547L37.8071 11.7592C37.8408 11.7618 37.8736 11.771 37.9037 11.7863C37.9338 11.8016 37.9605 11.8226 37.9824 11.8483C38.0043 11.874 38.0209 11.9037 38.0312 11.9358C38.0416 11.9678 38.0455 12.0016 38.0427 12.0352C38.0334 12.0978 38.0029 12.1552 37.9563 12.198C37.9097 12.2408 37.8498 12.2663 37.7866 12.2704Z" fill="#414141"/>
<path d="M46.9631 62.0561C46.3588 61.0032 46.0208 60.5738 46.1539 59.3675C46.3486 57.5172 46.6456 54.5628 46.789 51.7821C48.1922 54.5628 51.5517 59.296 57.2158 56.3313C58.3732 55.7282 57.0827 37.2554 41.4936 31.1421L39.7831 33.5649C39.5086 33.9956 39.1856 34.3935 38.8203 34.7508C32.3266 40.8845 27.1439 31.1421 27.1439 31.1421C11.2373 35.8957 12.6508 49.1139 11.1964 56.3313C10.4384 60.1036 15.1909 58.5395 19.7693 58.2123C21.7461 58.0794 22.1046 54.9819 22.1353 52.5488C22.134 52.5136 22.1467 52.4793 22.1707 52.4534C22.1947 52.4275 22.228 52.4122 22.2634 52.4108C22.2987 52.4095 22.3331 52.4222 22.359 52.4461C22.3849 52.4701 22.4003 52.5034 22.4016 52.5386L22.9445 57.9977C23.1002 59.5925 22.8094 61.1991 22.1046 62.6388" fill="#FD500A"/>
<path d="M27.1445 31.142C27.1445 31.142 30.1353 32.5937 31.5693 24.0064L36.0657 23.71C36.0657 23.71 36.3423 32.0007 41.4943 31.142C41.4943 31.142 35.0005 44.1864 27.1445 31.142Z" fill="white"/>
<path d="M45.0376 11.5241C44.9866 11.5244 44.9374 11.5057 44.8995 11.4716C44.8616 11.4376 44.8378 11.3907 44.8327 11.3401C44.1977 5.21659 39.0765 3.65249 39.0252 3.64227C38.9737 3.62582 38.9309 3.58973 38.9059 3.54186C38.881 3.49398 38.876 3.43821 38.8921 3.38669C38.898 3.36071 38.9092 3.33622 38.925 3.31473C38.9407 3.29325 38.9608 3.27523 38.9838 3.26181C39.0069 3.24839 39.0325 3.23984 39.059 3.2367C39.0855 3.23357 39.1124 3.2359 39.1379 3.24357C39.1994 3.26402 40.5206 3.66271 41.9443 4.84857C43.3681 6.03442 44.8942 7.95633 45.2424 11.2992C45.2453 11.3261 45.2427 11.3533 45.235 11.3791C45.2272 11.405 45.2144 11.4291 45.1972 11.45C45.1801 11.471 45.159 11.4883 45.1351 11.501C45.1112 11.5137 45.085 11.5216 45.0581 11.5241H45.0376Z" fill="white"/>
<path d="M45.1199 15.9814C45.0656 15.9814 45.0135 15.9599 44.975 15.9216C44.9366 15.8832 44.915 15.8312 44.915 15.777V12.9657C44.915 12.9115 44.9366 12.8595 44.975 12.8211C45.0135 12.7828 45.0656 12.7612 45.1199 12.7612C45.1742 12.7612 45.2263 12.7828 45.2647 12.8211C45.3032 12.8595 45.3247 12.9115 45.3247 12.9657V15.777C45.3247 15.8312 45.3032 15.8832 45.2647 15.9216C45.2263 15.9599 45.1742 15.9814 45.1199 15.9814Z" fill="white"/>
<path d="M23.4469 10.3996H23.3957C23.3438 10.3831 23.3001 10.3475 23.2735 10.3C23.2469 10.2526 23.2393 10.1969 23.2523 10.1441C24.256 6.69894 26.8064 4.82815 26.9088 4.74637C26.931 4.73078 26.956 4.71973 26.9825 4.71386C27.0089 4.70799 27.0363 4.70741 27.0629 4.71217C27.0896 4.71692 27.1151 4.72691 27.1378 4.74156C27.1606 4.7562 27.1803 4.77521 27.1956 4.79748C27.2118 4.81896 27.2235 4.8434 27.2302 4.86941C27.2369 4.89542 27.2383 4.92249 27.2345 4.94907C27.2307 4.97565 27.2217 5.00122 27.208 5.02433C27.1943 5.04743 27.1762 5.06761 27.1547 5.08372C27.1239 5.09394 24.6043 6.95451 23.6415 10.2565C23.6318 10.2998 23.6067 10.3381 23.571 10.3643C23.5352 10.3906 23.4912 10.4032 23.4469 10.3996Z" fill="white"/>
<path d="M22.9756 13.7832C22.9282 13.7823 22.8824 13.7658 22.8453 13.7362C22.8083 13.7067 22.7821 13.6657 22.7708 13.6197C22.6376 13.0515 22.6376 12.4602 22.7708 11.892C22.7768 11.8658 22.788 11.8411 22.8036 11.8192C22.8192 11.7973 22.839 11.7787 22.8618 11.7645C22.8847 11.7502 22.9101 11.7406 22.9366 11.7362C22.9632 11.7318 22.9904 11.7326 23.0166 11.7387C23.0435 11.7433 23.0692 11.7536 23.0919 11.7689C23.1146 11.7841 23.1338 11.8039 23.1483 11.8271C23.1628 11.8502 23.1723 11.8762 23.176 11.9032C23.1798 11.9303 23.1778 11.9578 23.1702 11.984C23.0577 12.4924 23.0577 13.0192 23.1702 13.5277C23.1778 13.5539 23.1798 13.5814 23.176 13.6085C23.1723 13.6355 23.1628 13.6614 23.1483 13.6846C23.1338 13.7077 23.1146 13.7276 23.0919 13.7428C23.0692 13.7581 23.0435 13.7683 23.0166 13.773L22.9756 13.7832Z" fill="white"/>
<path d="M63.0441 42.8774C65.9325 62.761 58.0458 64.09 53.1192 60.2768C50.7122 58.4162 49.0529 55.5743 48.6227 54.5418C48.6031 54.4984 48.5929 54.4515 48.5928 54.404C48.5926 54.3564 48.6026 54.3094 48.6219 54.266C48.6412 54.2225 48.6696 54.1837 48.705 54.1519C48.7404 54.1202 48.7822 54.0963 48.8276 54.0817C49.8313 53.7444 52.7504 52.6608 53.8464 51.1375" fill="white"/>
<path d="M57.5233 62.1885C56.0587 62.1885 54.4813 61.5956 52.9859 60.4404C50.4355 58.4572 48.7967 55.5028 48.428 54.6236C48.3748 54.4812 48.3785 54.3238 48.4382 54.184C48.4689 54.1161 48.5127 54.0549 48.5672 54.004C48.6217 53.9531 48.6858 53.9135 48.7558 53.8876C49.6469 53.5911 52.6069 52.5075 53.6722 51.0149C53.7047 50.9715 53.7533 50.9429 53.8071 50.9352C53.8608 50.9275 53.9155 50.9415 53.9589 50.974C53.9813 50.9894 54.0003 51.009 54.015 51.0317C54.0296 51.0544 54.0397 51.0798 54.0444 51.1065C54.0492 51.1331 54.0486 51.1604 54.0427 51.1868C54.0368 51.2132 54.0258 51.2382 54.0102 51.2603C52.904 52.8039 50.0566 53.8875 48.8889 54.276C48.8543 54.2948 48.8258 54.3232 48.807 54.3578C48.7967 54.3911 48.7967 54.4267 48.807 54.46C49.2576 55.5334 50.9374 58.3345 53.242 60.1133C55.5465 61.8921 57.9433 62.2499 59.7972 61.1765C61.651 60.1031 64.7648 56.1366 62.8392 42.8979C62.8348 42.8716 62.836 42.8447 62.8425 42.8189C62.8491 42.793 62.8609 42.7688 62.8772 42.7477C62.8936 42.7266 62.9141 42.7091 62.9375 42.6962C62.9609 42.6834 62.9867 42.6755 63.0133 42.673C63.0402 42.6687 63.0678 42.6698 63.0943 42.6762C63.1208 42.6826 63.1458 42.6943 63.1677 42.7104C63.1897 42.7266 63.2081 42.747 63.2221 42.7705C63.236 42.7939 63.2451 42.8198 63.2489 42.8468C64.0273 48.2241 64.0785 52.5995 63.382 55.8401C62.7777 58.6616 61.6408 60.5733 60.002 61.5343C59.2463 61.9624 58.3923 62.1879 57.5233 62.1885Z" fill="#414141"/>
<path d="M70.9718 61.9844H4.55957V62.3933H70.9718V61.9844Z" fill="#414141"/>
<path d="M62.6755 43.5216C62.6755 43.5216 65.9838 36.478 62.6755 36.2531C62.6755 36.2531 63.7714 32.9 60.7909 33.3294C60.7909 33.3294 60.7601 28.586 56.0793 29.7616C56.0793 29.7616 55.6082 32.3582 53.2626 30.8554C53.2626 30.8554 51.1732 27.6863 50.6918 30.7021C50.5996 31.2541 53.2729 33.4316 53.744 34.3006C54.9936 36.6212 55.8642 41.0579 55.5672 45.6889C55.4443 47.6721 55.2804 50.1869 55.3214 52.2929L62.6755 43.5216Z" fill="white"/>
<path d="M56.7451 29.4959C58.4147 28.77 57.5748 32.8285 55.8233 34.1473C55.7324 34.2158 55.6273 34.2633 55.5157 34.2863C55.4041 34.3093 55.2887 34.3072 55.178 34.2802C54.7581 34.1677 54.0616 33.3704 54.502 32.1436" fill="white"/>
<path d="M55.3625 34.5048C55.283 34.5054 55.2037 34.4951 55.1269 34.4742C54.8504 34.4026 54.5534 34.1368 54.369 33.7892C54.1846 33.4416 54.0822 32.6954 54.3075 32.082C54.3118 32.052 54.3226 32.0234 54.3393 31.9981C54.3559 31.9728 54.378 31.9515 54.4039 31.9358C54.4298 31.9201 54.4589 31.9103 54.4891 31.9071C54.5192 31.904 54.5497 31.9075 54.5783 31.9176C54.6069 31.9276 54.6329 31.9439 54.6545 31.9651C54.676 31.9864 54.6926 32.0122 54.7029 32.0407C54.7133 32.0691 54.7172 32.0995 54.7143 32.1296C54.7115 32.1598 54.702 32.1889 54.6865 32.2149C54.4612 32.8589 54.5841 33.3292 54.7275 33.6052C54.8709 33.8812 55.086 34.0448 55.2294 34.0755C55.3098 34.0957 55.3938 34.098 55.4753 34.0821C55.5567 34.0662 55.6336 34.0325 55.7005 33.9835C57.0116 32.9918 57.749 30.4566 57.3291 29.7512C57.2881 29.6898 57.1959 29.5263 56.8272 29.6796C56.7804 29.6912 56.7311 29.686 56.6878 29.665C56.6445 29.6439 56.61 29.6082 56.5905 29.5643C56.5709 29.5203 56.5675 29.4709 56.5808 29.4247C56.5941 29.3785 56.6233 29.3384 56.6633 29.3116C57.2983 29.0356 57.5954 29.3832 57.6876 29.5467C58.2304 30.477 57.37 33.2372 55.9463 34.3106C55.7786 34.438 55.5733 34.5063 55.3625 34.5048Z" fill="#414141"/>
<path d="M59.1423 31.4282C61.6005 30.5388 59.511 36.1614 57.2372 36.7747C57.2372 36.7747 56.09 36.8974 56.1207 35.5684" fill="white"/>
<path d="M57.1652 36.9792C56.85 36.988 56.543 36.8786 56.3048 36.6725C56.0385 36.4272 55.9053 36.049 55.9156 35.5685C55.9156 35.5142 55.9372 35.4622 55.9756 35.4239C56.014 35.3856 56.0661 35.364 56.1204 35.364H56.1307C56.1841 35.3691 56.2337 35.394 56.2697 35.4337C56.3057 35.4734 56.3255 35.5251 56.3253 35.5787C56.315 35.9365 56.4072 36.2023 56.5813 36.3659C56.7527 36.5094 56.9725 36.5825 57.1959 36.5703C58.384 36.233 59.5926 34.3622 59.9511 32.8696C60.0945 32.2665 60.0638 31.7962 59.8692 31.6224C59.6746 31.4486 59.4185 31.5407 59.2034 31.6224C59.1518 31.6401 59.0953 31.6365 59.0463 31.6125C58.9973 31.5886 58.9599 31.5462 58.9422 31.4946C58.9246 31.4431 58.9282 31.3867 58.9522 31.3378C58.9762 31.289 59.0187 31.2516 59.0703 31.234C59.5312 31.0704 59.8897 31.1011 60.1457 31.3157C60.4018 31.5304 60.5349 32.1745 60.3506 32.9616C60.0126 34.3928 58.763 36.5703 57.2881 36.969H57.1652V36.9792Z" fill="#414141"/>
<path d="M61.4262 33.8303C63.7512 33.3805 62.1431 38.8906 58.6709 39.1462C58.6709 39.1462 57.1346 39.1973 57.3087 37.7968" fill="white"/>
<path d="M58.6603 39.3506C58.5067 39.3506 57.8102 39.3199 57.4005 38.8701C57.1444 38.5941 57.0522 38.226 57.1034 37.7762C57.106 37.7493 57.1139 37.7232 57.1266 37.6994C57.1394 37.6755 57.1567 37.6544 57.1777 37.6373C57.1986 37.6202 57.2228 37.6074 57.2487 37.5997C57.2746 37.5919 57.3019 37.5894 57.3288 37.5922C57.383 37.6021 57.4317 37.6315 57.4657 37.6748C57.4997 37.7182 57.5166 37.7724 57.5131 37.8274C57.4722 38.1545 57.5336 38.4101 57.6975 38.5941C58.0253 38.9519 58.6603 38.9416 58.6603 38.9416C60.3093 38.819 61.477 37.4287 61.9789 36.2735C62.3578 35.3943 62.4193 34.5662 62.1325 34.1982C61.9891 34.0244 61.7638 33.9733 61.4565 34.0347C61.4036 34.0436 61.3493 34.0315 61.3052 34.0009C61.2612 33.9703 61.2309 33.9237 61.2209 33.8711C61.2117 33.817 61.2235 33.7615 61.254 33.7159C61.2845 33.6703 61.3313 33.638 61.3848 33.6257C61.9584 33.5133 62.2861 33.7382 62.45 33.9427C62.8495 34.4334 62.8085 35.3943 62.3578 36.437C61.7843 37.7558 60.5142 39.2177 58.6808 39.3506H58.6603Z" fill="#414141"/>
<path d="M55.7824 30.6002L50.5792 23.71L48.4795 25.8772L54.3587 32.011C54.4077 32.0591 54.4683 32.0938 54.5347 32.1117C54.6011 32.1297 54.671 32.1301 54.7377 32.1132C55.0142 32.0314 55.4956 31.7861 55.8336 30.9784C55.8584 30.9163 55.8667 30.8489 55.8577 30.7826C55.8488 30.7163 55.8228 30.6535 55.7824 30.6002Z" fill="white"/>
<path d="M54.6354 32.3279C54.5564 32.3283 54.4782 32.3122 54.4058 32.2805C54.3335 32.2488 54.2686 32.2022 54.2155 32.1439L48.2031 25.8772L50.5999 23.3931L55.9464 30.4775C56.0088 30.5576 56.0492 30.6525 56.0636 30.7529C56.078 30.8533 56.0658 30.9557 56.0284 31.05C55.6494 31.9599 55.0861 32.2257 54.789 32.3074C54.7397 32.3242 54.6875 32.3311 54.6354 32.3279ZM48.7665 25.8772L54.5125 31.8679C54.5341 31.8883 54.5601 31.9036 54.5885 31.9124C54.6169 31.9213 54.647 31.9235 54.6764 31.919C54.9119 31.8576 55.3319 31.6429 55.6494 30.8967C55.6603 30.8676 55.6632 30.8362 55.6578 30.8056C55.6524 30.775 55.6389 30.7465 55.6187 30.7229L50.5589 24.0167L48.7665 25.8772Z" fill="#414141"/>
<path d="M25.7201 13.4053C24.6241 14.1106 24.2759 14.5298 24.4193 15.8281C24.5115 16.5846 25.1055 17.9033 25.7201 18.3531C26.3346 18.8029 26.7853 18.7927 27.0311 19.0279C27.6149 19.5901 27.6457 20.1933 27.7174 20.8066C27.9017 22.3401 29.3254 23.301 30.657 24.0984C32.7772 25.3661 35.7372 25.0185 37.5092 23.301C38.5129 22.3299 39.3836 21.144 39.7523 19.7946C40.203 18.1282 41.8827 16.8504 41.9237 16.789C42.3744 16.0019 42.5792 15.3783 42.4768 14.4684C42.3436 13.2826 40.6639 12.2603 39.7011 11.5549C37.4682 9.8988 35.7577 8.16091 33.6682 6.10611C33.591 6.03174 33.4986 5.97484 33.3974 5.93928C33.2961 5.90372 33.1884 5.89034 33.0815 5.90004C32.9746 5.90974 32.871 5.94229 32.7779 5.99549C32.6847 6.04869 32.6041 6.12128 32.5416 6.20833C31.0564 8.24269 30.913 9.8988 27.0311 12.1478" fill="white"/>
<path d="M33.4533 25.0184H33.3919C30.1143 24.9878 28.5062 23.0045 27.7278 21.3484C27.2092 20.2105 26.9037 18.9874 26.8264 17.7397C26.8251 17.7134 26.8291 17.687 26.8382 17.6622C26.8474 17.6375 26.8615 17.6148 26.8797 17.5957C26.8979 17.5766 26.9198 17.5614 26.9441 17.551C26.9684 17.5406 26.9946 17.5352 27.021 17.5353H27.0313C27.0577 17.5339 27.0841 17.5379 27.1089 17.547C27.1337 17.5561 27.1564 17.5702 27.1756 17.5884C27.1947 17.6066 27.21 17.6285 27.2204 17.6527C27.2308 17.677 27.2362 17.7031 27.2361 17.7295C27.3178 18.9238 27.6127 20.094 28.1068 21.1848C29.1617 23.4339 30.9439 24.5891 33.3919 24.6095H33.4636C36.0652 24.6095 37.96 23.2601 39.0867 20.5919C39.9368 18.5678 39.9983 16.513 40.0085 16.4925C40.0025 16.4624 40.0033 16.4314 40.011 16.4017C40.0186 16.3719 40.0329 16.3443 40.0527 16.3208C40.0725 16.2974 40.0973 16.2786 40.1254 16.266C40.1534 16.2535 40.1839 16.2473 40.2147 16.2481C40.2454 16.2489 40.2756 16.2566 40.3029 16.2706C40.3303 16.2846 40.3541 16.3046 40.3727 16.329C40.3912 16.3535 40.4041 16.3818 40.4102 16.4119C40.4163 16.4419 40.4155 16.473 40.408 16.5027C40.3362 17.9632 40.0176 19.401 39.4657 20.7555C38.2878 23.5463 36.2086 25.0184 33.4533 25.0184Z" fill="#414141"/>
<path d="M26.8988 19.0275C26.3497 19.0253 25.8168 18.842 25.3829 18.5061C24.7479 17.995 24.3587 17.1771 24.2358 16.0731C24.0412 14.3249 24.5533 13.9365 25.0142 13.5889C25.4751 13.2413 25.6288 13.1186 25.5366 12.1679C25.5335 12.1142 25.5507 12.0613 25.5848 12.0196C25.619 11.9779 25.6676 11.9506 25.7209 11.943C25.7479 11.9402 25.7751 11.9427 25.801 11.9505C25.827 11.9582 25.8511 11.971 25.8721 11.9881C25.893 12.0052 25.9104 12.0263 25.9231 12.0502C25.9358 12.074 25.9437 12.1001 25.9463 12.127C26.0589 13.3027 25.6288 13.6298 25.26 13.916C24.8913 14.2023 24.4816 14.509 24.6455 16.0219C24.9528 18.8128 26.9296 18.6288 27.0115 18.6186C27.0379 18.6142 27.0648 18.6154 27.0907 18.6219C27.1166 18.6284 27.1409 18.6402 27.162 18.6565C27.1832 18.6728 27.2007 18.6933 27.2136 18.7167C27.2265 18.74 27.2344 18.7658 27.2368 18.7924C27.2397 18.8192 27.2371 18.8464 27.2294 18.8723C27.2216 18.8982 27.2088 18.9223 27.1916 18.9432C27.1745 18.9641 27.1534 18.9814 27.1295 18.9941C27.1056 19.0068 27.0794 19.0147 27.0525 19.0173L26.8988 19.0275Z" fill="#414141"/>
<path d="M29.8794 15.8997C30.1283 15.8997 30.33 15.593 30.33 15.2147C30.33 14.8364 30.1283 14.5298 29.8794 14.5298C29.6305 14.5298 29.4287 14.8364 29.4287 15.2147C29.4287 15.593 29.6305 15.8997 29.8794 15.8997Z" fill="#414141"/>
<path d="M28.7426 13.8342C28.6863 13.832 28.6322 13.812 28.588 13.7771C28.5439 13.7422 28.5119 13.6942 28.4968 13.64C28.4876 13.6071 28.485 13.5727 28.4893 13.5388C28.4937 13.5049 28.5047 13.4722 28.5219 13.4427C28.5391 13.4131 28.5621 13.3873 28.5894 13.3668C28.6168 13.3463 28.648 13.3314 28.6812 13.3231L30.9448 12.7302C30.9764 12.7209 31.0095 12.7181 31.0423 12.7218C31.075 12.7256 31.1066 12.7359 31.1353 12.7521C31.1639 12.7683 31.1891 12.7901 31.2091 12.8162C31.2292 12.8423 31.2438 12.8721 31.252 12.904C31.2711 12.969 31.2634 13.039 31.2307 13.0984C31.1981 13.1578 31.1431 13.2019 31.0779 13.2209L28.8143 13.824L28.7426 13.8342Z" fill="#414141"/>
<path d="M32.44 19.0278H32.4298C31.9791 18.9869 31.6923 18.8336 31.5899 18.5575C31.3645 17.9748 32.1327 17.1468 32.2966 16.9934C32.3335 16.9546 32.3843 16.9317 32.4379 16.9298C32.4915 16.9279 32.5438 16.9471 32.5834 16.9832C32.6216 17.0231 32.6429 17.0762 32.6429 17.1314C32.6429 17.1866 32.6216 17.2397 32.5834 17.2797C32.2864 17.5864 31.8767 18.1691 31.9791 18.4144C32.0815 18.6598 32.2966 18.6086 32.4502 18.6189C32.4776 18.6187 32.5047 18.6243 32.5298 18.6353C32.5548 18.6464 32.5773 18.6625 32.5956 18.6828C32.614 18.703 32.6279 18.7269 32.6364 18.7529C32.6448 18.7789 32.6477 18.8064 32.6449 18.8335C32.64 18.8852 32.6165 18.9332 32.5789 18.9689C32.5412 19.0046 32.4919 19.0255 32.44 19.0278Z" fill="#414141"/>
<path d="M44.679 26.981C50.5564 26.981 55.321 22.2255 55.321 16.3594C55.321 10.4932 50.5564 5.73779 44.679 5.73779C38.8017 5.73779 34.0371 10.4932 34.0371 16.3594C34.0371 22.2255 38.8017 26.981 44.679 26.981Z" fill="white"/>
<path d="M44.6798 27.1955C38.6982 27.1955 33.833 22.3294 33.833 16.3593C33.833 13.488 34.9758 10.7344 37.01 8.70408C39.0441 6.6738 41.803 5.5332 44.6798 5.5332C47.5565 5.5332 50.3155 6.6738 52.3496 8.70408C54.3838 10.7344 55.5266 13.488 55.5266 16.3593C55.5266 22.3294 50.6614 27.1955 44.6798 27.1955ZM44.6798 5.94212C41.9125 5.94483 39.2594 7.04321 37.3027 8.99622C35.3459 10.9492 34.2454 13.5973 34.2427 16.3593C34.2427 22.1045 38.9235 26.7866 44.6798 26.7866C50.4361 26.7866 55.1169 22.1045 55.1169 16.3593C55.1142 13.5973 54.0137 10.9492 52.0569 8.99622C50.1002 7.04321 47.4471 5.94483 44.6798 5.94212Z" fill="#414141"/>
<path d="M44.6794 25.1515C49.4367 25.1515 53.2933 21.3022 53.2933 16.554C53.2933 11.8058 49.4367 7.95654 44.6794 7.95654C39.922 7.95654 36.0654 11.8058 36.0654 16.554C36.0654 21.3022 39.922 25.1515 44.6794 25.1515Z" fill="white"/>
<path d="M44.6791 25.3558C42.9349 25.3558 41.2299 24.8396 39.7797 23.8724C38.3294 22.9052 37.1991 21.5306 36.5316 19.9222C35.8642 18.3139 35.6895 16.5441 36.0298 14.8367C36.3701 13.1293 37.21 11.5609 38.4433 10.33C39.6766 9.09901 41.248 8.26071 42.9587 7.92108C44.6693 7.58146 46.4425 7.75577 48.0539 8.42196C49.6654 9.08816 51.0427 10.2163 52.0117 11.6638C52.9807 13.1113 53.4979 14.813 53.4979 16.5539C53.4952 18.8875 52.5652 21.1247 50.912 22.7748C49.2587 24.4249 47.0172 25.3531 44.6791 25.3558ZM44.6791 8.16087C43.016 8.16087 41.3902 8.65311 40.0073 9.57535C38.6244 10.4976 37.5466 11.8084 36.9102 13.342C36.2737 14.8756 36.1072 16.5632 36.4316 18.1913C36.7561 19.8193 37.557 21.3148 38.733 22.4886C39.909 23.6624 41.4074 24.4618 43.0386 24.7856C44.6698 25.1094 46.3606 24.9432 47.8972 24.308C49.4337 23.6727 50.747 22.597 51.671 21.2168C52.595 19.8366 53.0882 18.2139 53.0882 16.5539C53.0855 14.3287 52.1987 12.1955 50.6223 10.6221C49.0458 9.04871 46.9085 8.16358 44.6791 8.16087Z" fill="#414141"/>
<path d="M38.0629 15.9203C38.5664 15.9203 38.9745 15.2978 38.9745 14.53C38.9745 13.7621 38.5664 13.1396 38.0629 13.1396C37.5595 13.1396 37.1514 13.7621 37.1514 14.53C37.1514 15.2978 37.5595 15.9203 38.0629 15.9203Z" fill="#414141"/>
<path d="M40.7256 24.2004C40.7256 24.2004 46.6662 17.3511 42.7433 8.1709L40.7256 24.2004Z" fill="white"/>
<path d="M40.7261 24.405C40.6772 24.4036 40.6302 24.3856 40.593 24.3539C40.5526 24.3184 40.5278 24.2685 40.524 24.215C40.5201 24.1614 40.5376 24.1085 40.5725 24.0677C40.5827 24.0472 42.0474 22.34 43.0204 19.5389C43.9115 16.973 44.5568 12.9247 42.5595 8.25284C42.5386 8.20394 42.5376 8.14884 42.5567 8.09922C42.5759 8.0496 42.6136 8.00936 42.6619 7.98705C42.6867 7.97513 42.7137 7.96832 42.7412 7.96702C42.7687 7.96573 42.7962 7.96998 42.822 7.97952C42.8478 7.98907 42.8714 8.0037 42.8914 8.02256C42.9115 8.04142 42.9275 8.06411 42.9385 8.08928C44.987 12.894 44.3212 17.0548 43.3994 19.6923C42.4059 22.5547 40.9412 24.2619 40.8798 24.3335C40.8603 24.3552 40.8367 24.3727 40.8103 24.385C40.7839 24.3973 40.7553 24.4041 40.7261 24.405Z" fill="#414141"/>
<path d="M19.7695 58.2119C19.7695 58.2119 19.9232 61.3299 19.7695 62.1886V58.2119Z" fill="white"/>
<path d="M19.7696 62.3936H19.7388C19.6853 62.3813 19.6385 62.349 19.608 62.3034C19.5776 62.2578 19.5657 62.2023 19.575 62.1482C19.7184 61.3202 19.575 58.2533 19.5647 58.2226C19.5633 58.1963 19.5673 58.1699 19.5765 58.1452C19.5856 58.1204 19.5998 58.0978 19.618 58.0786C19.6362 58.0595 19.6581 58.0443 19.6824 58.0339C19.7067 58.0235 19.7329 58.0181 19.7593 58.0182C19.7866 58.0153 19.8141 58.0182 19.8401 58.0266C19.8661 58.0351 19.8901 58.049 19.9104 58.0673C19.9307 58.0856 19.9469 58.108 19.9579 58.133C19.9689 58.158 19.9746 58.1851 19.9744 58.2124C19.9847 58.3351 20.1281 61.3508 19.9744 62.2198C19.967 62.2685 19.9422 62.313 19.9046 62.3449C19.8669 62.3768 19.819 62.3941 19.7696 62.3936Z" fill="#414141"/>
<path d="M31.7126 22.8311C31.3131 22.8311 30.9854 22.4324 30.9854 21.9519C30.9854 21.4714 31.3131 21.0625 31.7126 21.0625C32.112 21.0625 32.4398 21.4612 32.4398 21.9519C32.4398 22.4426 32.112 22.8311 31.7126 22.8311ZM31.7126 21.4714C31.5384 21.4714 31.3951 21.6963 31.3951 21.9519C31.3951 22.2075 31.5384 22.4221 31.7126 22.4221C31.8867 22.4221 32.0301 22.2075 32.0301 21.9519C32.0301 21.6963 31.8867 21.4714 31.7126 21.4714Z" fill="#414141"/>
<path d="M59.8998 41.5593C59.7352 41.5559 59.571 41.5422 59.4082 41.5185C58.5171 41.3856 57.9537 41.1402 57.7284 40.7926C57.6836 40.7297 57.653 40.6578 57.6389 40.5819C57.6247 40.5059 57.6273 40.4279 57.6465 40.353L58.0357 40.4655C58.0349 40.4899 58.0391 40.5143 58.0479 40.5371C58.0567 40.5599 58.0699 40.5808 58.0869 40.5984C58.1893 40.7415 58.4966 40.9869 59.4594 41.1198L59.8896 41.1504C61.7025 41.1504 63.1159 39.5045 63.4642 38.5743C63.549 38.3478 63.5661 38.1017 63.5134 37.8657C63.4607 37.6298 63.3404 37.4142 63.1672 37.2453C63.1466 37.2278 63.1299 37.2063 63.1182 37.182C63.1065 37.1578 63.0999 37.1313 63.0989 37.1044C63.098 37.0775 63.1026 37.0507 63.1126 37.0256C63.1226 37.0006 63.1377 36.9779 63.1569 36.959C63.1925 36.9187 63.2424 36.894 63.2961 36.8902C63.3498 36.8863 63.4028 36.9037 63.4437 36.9386C63.4744 36.9693 64.2426 37.6746 63.8432 38.7174C63.4437 39.7601 61.9278 41.5593 59.8998 41.5593Z" fill="#414141"/>
<path d="M62.8187 43.1131C62.7371 43.1168 62.6559 43.0991 62.5831 43.062C62.5588 43.05 62.5371 43.0334 62.5193 43.013C62.5014 42.9926 62.4878 42.9689 62.4793 42.9432C62.4707 42.9175 62.4673 42.8904 62.4693 42.8634C62.4713 42.8364 62.4787 42.8101 62.491 42.786C62.5027 42.7615 62.5195 42.7398 62.5402 42.7222C62.5609 42.7047 62.585 42.6916 62.6111 42.6839C62.6371 42.6762 62.6645 42.674 62.6914 42.6775C62.7184 42.681 62.7443 42.6901 62.7675 42.7042C62.8693 42.7139 62.9719 42.6962 63.0645 42.6531C63.5254 42.4588 64.0581 41.9784 64.1093 41.825C64.1202 41.796 64.1231 41.7645 64.1176 41.7339C64.1122 41.7034 64.0987 41.6748 64.0785 41.6512L62.8494 39.8622C62.8341 39.8409 62.8232 39.8168 62.8174 39.7912C62.8117 39.7656 62.8112 39.7391 62.816 39.7133C62.8207 39.6875 62.8307 39.6629 62.8453 39.6411C62.8598 39.6193 62.8787 39.6006 62.9007 39.5862C62.9228 39.5706 62.9478 39.5596 62.9743 39.5537C63.0007 39.5478 63.0281 39.5473 63.0547 39.552C63.0814 39.5568 63.1069 39.5668 63.1297 39.5814C63.1524 39.596 63.1721 39.6151 63.1874 39.6373L64.4165 41.4161C64.4699 41.4946 64.505 41.584 64.5192 41.6777C64.5334 41.7715 64.5263 41.8672 64.4985 41.9579C64.3858 42.2748 63.7303 42.8269 63.2182 43.0313C63.0918 43.0848 62.956 43.1126 62.8187 43.1131Z" fill="#414141"/>
<path d="M62.6755 43.0825C62.6439 43.0818 62.6128 43.074 62.5844 43.0599C62.5561 43.0458 62.5313 43.0256 62.5117 43.0007L61.2518 41.1708C61.2364 41.1487 61.2254 41.1237 61.2196 41.0973C61.2138 41.071 61.2133 41.0437 61.2181 41.0171C61.2228 40.9905 61.2328 40.9652 61.2473 40.9424C61.2619 40.9197 61.2809 40.9 61.3031 40.8846C61.3252 40.8691 61.3503 40.8582 61.3767 40.8524C61.4031 40.8466 61.4304 40.8461 61.4571 40.8509C61.4837 40.8556 61.5091 40.8655 61.5319 40.8801C61.5547 40.8947 61.5744 40.9135 61.5898 40.9357L62.8497 42.7656C62.8648 42.7883 62.8752 42.8138 62.8803 42.8406C62.8854 42.8674 62.8851 42.895 62.8794 42.9216C62.8737 42.9483 62.8626 42.9736 62.847 42.9959C62.8313 43.0183 62.8113 43.0373 62.7882 43.0518C62.7544 43.0728 62.7153 43.0834 62.6755 43.0825Z" fill="#414141"/>
<path d="M44.7411 67.1676C47.2075 67.1676 49.2068 65.1949 49.2068 62.7615C49.2068 60.3281 47.2075 58.3555 44.7411 58.3555C42.2748 58.3555 40.2754 60.3281 40.2754 62.7615C40.2754 65.1949 42.2748 67.1676 44.7411 67.1676Z" fill="white"/>
<path d="M44.7925 67.3716H44.4647L42.5801 67.1467L44.096 66.9627V66.9116L44.2701 66.932C45.2865 66.8046 46.221 66.3097 46.8966 65.5412C47.5723 64.7726 47.9424 63.7836 47.9369 62.7611C47.9369 60.5734 46.5029 58.8662 44.4545 58.6208L42.7747 58.4266L44.4545 58.2221L44.5364 58.1915C44.615 58.1625 44.6984 58.1486 44.7822 58.1506C45.4347 58.1491 46.08 58.2856 46.6758 58.5511C47.2715 58.8166 47.8042 59.205 48.2387 59.6908C48.6731 60.1766 48.9996 60.7488 49.1965 61.3696C49.3934 61.9904 49.4563 62.6458 49.3811 63.2927C49.2462 64.4141 48.7053 65.4477 47.8602 66.1989C47.0151 66.9501 45.9241 67.3672 44.7925 67.3716ZM46.2776 58.8355C47.5477 59.6227 48.3466 61.0539 48.3466 62.7611C48.3481 63.5784 48.1328 64.3816 47.7227 65.089C47.3125 65.7965 46.7221 66.383 46.0113 66.7889C46.5213 66.6289 46.997 66.3759 47.4145 66.0426C47.8474 65.7024 48.2081 65.2794 48.4754 64.7985C48.7427 64.3175 48.9113 63.7883 48.9714 63.2416C49.0413 62.6519 48.9843 62.0541 48.8041 61.4882C48.624 60.9223 48.3248 60.4013 47.9267 59.96C47.4727 59.4615 46.9079 59.0764 46.2776 58.8355Z" fill="#414141"/>
<path d="M44.5258 67.3515H44.28C41.9549 67.3515 40.0703 65.2865 40.0703 62.7614C40.0703 60.2363 41.9242 58.1509 44.2083 58.1509C44.376 58.1509 44.5436 58.1612 44.7102 58.1815C46.7791 58.4678 48.3462 60.4306 48.3462 62.7614C48.3462 65.0922 46.7791 67.0652 44.7102 67.3413L44.5258 67.3515ZM44.2083 58.5598C42.1495 58.5598 40.48 60.451 40.48 62.7614C40.48 65.0718 42.1905 66.9426 44.28 66.9426H44.4336C44.5054 66.9491 44.5778 66.9457 44.6487 66.9323C46.5231 66.687 47.9365 64.8878 47.9365 62.7614C47.9365 60.635 46.5231 58.846 44.6487 58.5905C44.5028 58.5701 44.3556 58.5598 44.2083 58.5598Z" fill="#414141"/>
<path d="M44.208 66.145C42.5283 66.145 41.166 64.632 41.166 62.7613C41.166 60.8905 42.5283 59.3877 44.208 59.3877L44.5768 59.4081C46.0926 59.6126 47.2398 61.054 47.2398 62.7613C47.2398 64.4685 46.0926 65.9099 44.5768 66.1144C44.4549 66.1347 44.3316 66.145 44.208 66.145ZM44.208 59.7966C42.7536 59.7966 41.5757 61.1256 41.5757 62.7613C41.5757 64.3969 42.7536 65.7361 44.208 65.7361L44.5153 65.7157C45.8366 65.5317 46.8301 64.264 46.8301 62.7613C46.8301 61.2585 45.8366 59.9908 44.5153 59.8171C44.4138 59.8001 44.3109 59.7932 44.208 59.7966Z" fill="#414141"/>
<path d="M48.49 60.6858H47.5681C47.5138 60.6858 47.4617 60.6642 47.4233 60.6259C47.3849 60.5875 47.3633 60.5355 47.3633 60.4813C47.3633 60.4271 47.3849 60.3751 47.4233 60.3367C47.4617 60.2984 47.5138 60.2769 47.5681 60.2769H48.49C48.5443 60.2769 48.5964 60.2984 48.6348 60.3367C48.6732 60.3751 48.6948 60.4271 48.6948 60.4813C48.6948 60.5355 48.6732 60.5875 48.6348 60.6259C48.5964 60.6642 48.5443 60.6858 48.49 60.6858Z" fill="#414141"/>
<path d="M48.8479 61.7292H47.9773C47.923 61.7292 47.8709 61.7077 47.8325 61.6693C47.794 61.631 47.7725 61.579 47.7725 61.5248C47.7725 61.4705 47.794 61.4185 47.8325 61.3802C47.8709 61.3419 47.923 61.3203 47.9773 61.3203H48.8479C48.9023 61.3203 48.9544 61.3419 48.9928 61.3802C49.0312 61.4185 49.0528 61.4705 49.0528 61.5248C49.0528 61.579 49.0312 61.631 48.9928 61.6693C48.9544 61.7077 48.9023 61.7292 48.8479 61.7292Z" fill="#414141"/>
<path d="M49.1963 63.1394H48.1414C48.087 63.1394 48.0349 63.1178 47.9965 63.0795C47.9581 63.0412 47.9365 62.9892 47.9365 62.9349C47.9365 62.8807 47.9581 62.8287 47.9965 62.7903C48.0349 62.752 48.087 62.7305 48.1414 62.7305H49.1963C49.2507 62.7305 49.3028 62.752 49.3412 62.7903C49.3796 62.8287 49.4012 62.8807 49.4012 62.9349C49.4012 62.9892 49.3796 63.0412 49.3412 63.0795C49.3028 63.1178 49.2507 63.1394 49.1963 63.1394Z" fill="#414141"/>
<path d="M48.7863 64.6116H47.8543C47.7999 64.6116 47.7478 64.59 47.7094 64.5517C47.671 64.5133 47.6494 64.4613 47.6494 64.4071C47.6494 64.3529 47.671 64.3009 47.7094 64.2625C47.7478 64.2242 47.7999 64.2026 47.8543 64.2026H48.7863C48.8407 64.2026 48.8928 64.2242 48.9312 64.2625C48.9696 64.3009 48.9912 64.3529 48.9912 64.4071C48.9912 64.4613 48.9696 64.5133 48.9312 64.5517C48.8928 64.59 48.8407 64.6116 48.7863 64.6116Z" fill="#414141"/>
<path d="M47.8542 66.1247H46.9529C46.8986 66.1247 46.8465 66.1032 46.808 66.0648C46.7696 66.0265 46.748 65.9745 46.748 65.9203C46.748 65.8661 46.7696 65.814 46.808 65.7757C46.8465 65.7374 46.8986 65.7158 46.9529 65.7158H47.8542C47.9086 65.7158 47.9607 65.7374 47.9991 65.7757C48.0375 65.814 48.0591 65.8661 48.0591 65.9203C48.0591 65.9745 48.0375 66.0265 47.9991 66.0648C47.9607 66.1032 47.9086 66.1247 47.8542 66.1247Z" fill="#414141"/>
<path d="M28.1999 55.5643C28.1999 55.5643 18.7154 56.9853 19.0227 58.6721C19.3299 60.3588 19.9957 61.4629 19.0944 63.3235C18.6437 64.2538 17.6604 65.4498 17.3941 66.8095C17.1278 68.1691 17.7116 69.7741 19.0227 70.8578C21.655 73.0352 21.5833 74.7322 33.8026 70.8578C33.8026 70.8578 38.1454 69.7537 36.2812 66.1552C34.4171 62.5568 33.5772 64.2231 35.257 59.3774C35.257 59.3774 36.0252 57.3738 33.608 57.7009C33.608 57.7009 31.6824 57.7827 31.1088 56.8728C30.5352 55.963 30.1255 54.5829 28.1999 55.5643Z" fill="white"/>
<path d="M22.1975 64.8773C22.1975 64.8773 23.7953 61.0233 24.9937 60.6859C26.1921 60.3486 33.5974 58.2222 34.0685 58.7538C34.5397 59.2854 33.8637 62.8123 32.8702 63.0168C31.8767 63.2212 25.0654 65.3476 25.5366 65.8792C26.0077 66.4108 33.0648 64.5502 33.7305 64.9489C34.3963 65.3476 36.1683 67.5455 34.2222 69.8661C32.2761 72.1867 23.2013 73.8326 22.4024 73.1681C21.6034 72.5036 18.2644 68.8029 18.5307 67.6784C18.797 66.5539 18.1927 65.2965 19.4013 65.8485C20.6099 66.4005 21.4805 66.421 22.1975 64.8773Z" fill="#414141"/>
<path d="M23.6623 73.4848C22.4127 73.4848 21.2349 73.2905 20.5896 72.6772C18.1416 70.3668 16.216 68.5471 17.5476 65.7665C18.7971 63.1494 19.4834 61.9329 19.4936 61.9125C19.5063 61.8889 19.5238 61.8682 19.5449 61.8516C19.566 61.8351 19.5903 61.8231 19.6162 61.8164C19.6422 61.8096 19.6693 61.8083 19.6958 61.8126C19.7223 61.8168 19.7476 61.8264 19.7702 61.8409C19.8175 61.8668 19.8527 61.9104 19.8681 61.9621C19.8834 62.0138 19.8777 62.0694 19.8521 62.1169C19.8419 62.1271 19.1659 63.3437 17.9163 65.9403C16.6667 68.5369 18.4591 70.101 20.8764 72.3807C21.6958 73.1576 23.9184 73.2905 26.9604 72.7283C31.1701 71.9616 35.7075 70.1112 36.2811 68.9151C37.0595 67.3306 35.9431 65.8585 35.0417 64.6829C34.7944 64.3726 34.5652 64.0484 34.3555 63.7117C33.956 63.0268 34.335 61.7898 34.7037 60.5835C35.0315 59.5407 35.4002 58.3447 34.9905 58.0584C34.1916 57.4859 29.3162 58.5696 26.9706 59.0909L25.7723 59.3465C23.6931 59.7861 21.7982 63.3437 21.7777 63.3743C21.769 63.403 21.754 63.4294 21.734 63.4516C21.7139 63.4739 21.6892 63.4914 21.6615 63.5031C21.6339 63.5148 21.604 63.5202 21.5741 63.5191C21.5441 63.518 21.5147 63.5103 21.4881 63.4966C21.4614 63.4829 21.438 63.4635 21.4197 63.4399C21.4013 63.4162 21.3884 63.3887 21.3819 63.3595C21.3753 63.3303 21.3752 63.3 21.3817 63.2708C21.3881 63.2415 21.401 63.2141 21.4192 63.1903C21.5012 63.037 23.4165 59.4283 25.6903 58.9478L26.8785 58.6922C30.6272 57.854 34.3555 57.0975 35.2261 57.7211C35.8714 58.1811 35.4924 59.4078 35.0929 60.7062C34.7652 61.7693 34.3964 62.9756 34.714 63.5072C34.9123 63.831 35.1313 64.1417 35.3695 64.4375C36.2811 65.6336 37.5306 67.2795 36.6498 69.0889C35.9328 70.5713 31.0062 72.4114 27.0321 73.1372C26.1205 73.3008 24.8607 73.4848 23.6623 73.4848Z" fill="#414141"/>
<path d="M20.3022 63.7531C20.2617 63.7519 20.2223 63.74 20.1881 63.7184C20.1538 63.6968 20.126 63.6664 20.1076 63.6304C19.913 63.1397 18.1923 58.8563 19.5545 57.926C20.9168 56.9957 27.81 55.5236 28.2709 55.7076C28.2966 55.7167 28.3203 55.7309 28.3405 55.7493C28.3607 55.7677 28.377 55.7899 28.3885 55.8147C28.3999 55.8394 28.4063 55.8662 28.4072 55.8935C28.4081 55.9208 28.4036 55.9479 28.3938 55.9734C28.3703 56.0189 28.3326 56.0555 28.2864 56.0776C28.2402 56.0997 28.188 56.1062 28.1377 56.0961C27.6666 56.045 21.009 57.4149 19.7901 58.2634C18.9707 58.8256 19.7799 61.7494 20.4866 63.4668C20.4984 63.4908 20.5051 63.517 20.5063 63.5437C20.5074 63.5704 20.5031 63.5971 20.4935 63.622C20.4839 63.647 20.4692 63.6697 20.4504 63.6887C20.4316 63.7077 20.409 63.7227 20.3842 63.7326L20.3022 63.7531Z" fill="#414141"/>
<path d="M26.1917 55.3704C25.4747 55.3704 24.7373 55.1966 24.2968 54.6241C24.2642 54.5807 24.2502 54.5262 24.2579 54.4725C24.2656 54.4188 24.2943 54.3704 24.3378 54.3379C24.3587 54.3203 24.3832 54.3074 24.4094 54.2999C24.4357 54.2925 24.4633 54.2906 24.4903 54.2944C24.5174 54.2983 24.5433 54.3078 24.5665 54.3223C24.5896 54.3368 24.6094 54.3561 24.6246 54.3788C25.5054 55.5237 28.107 54.6241 28.1275 54.6139C28.153 54.6041 28.1803 54.5996 28.2076 54.6005C28.2349 54.6014 28.2618 54.6078 28.2866 54.6192C28.3114 54.6306 28.3337 54.6469 28.3521 54.6671C28.3705 54.6872 28.3847 54.7108 28.3938 54.7366C28.4108 54.7882 28.4076 54.8443 28.3848 54.8936C28.362 54.9429 28.3213 54.9818 28.2709 55.0023C28.1992 55.0228 27.2159 55.3704 26.1917 55.3704Z" fill="#414141"/>
<path d="M24.8908 58.8768C24.8414 58.8788 24.7929 58.8628 24.7543 58.8319C24.7158 58.801 24.6897 58.7572 24.681 58.7086C24.6722 58.66 24.6814 58.6099 24.7068 58.5675C24.7322 58.5252 24.7721 58.4934 24.8191 58.4781C25.8536 58.0999 28.3323 57.2411 28.8547 57.5171H28.8854C29.0493 57.4456 29.2541 56.914 29.3565 56.454C29.3688 56.4032 29.4 56.3591 29.4438 56.3306C29.4876 56.3021 29.5407 56.2913 29.5921 56.3006C29.6457 56.3129 29.6925 56.3451 29.7229 56.3908C29.7534 56.4364 29.7652 56.4919 29.756 56.546C29.715 56.73 29.4897 57.6909 29.0595 57.8852C28.9973 57.9167 28.9282 57.9323 28.8585 57.9305C28.7887 57.9287 28.7206 57.9096 28.6601 57.875C28.3835 57.7523 26.5194 58.2941 24.9523 58.8666L24.8908 58.8768Z" fill="#414141"/>
<path d="M20.5681 65.6747C21.1565 65.6747 21.6334 65.1987 21.6334 64.6115C21.6334 64.0243 21.1565 63.5483 20.5681 63.5483C19.9798 63.5483 19.5029 64.0243 19.5029 64.6115C19.5029 65.1987 19.9798 65.6747 20.5681 65.6747Z" fill="#414141"/>
<path d="M24.0818 54.8285C24.6701 54.8285 25.147 54.3525 25.147 53.7653C25.147 53.1782 24.6701 52.7021 24.0818 52.7021C23.4935 52.7021 23.0166 53.1782 23.0166 53.7653C23.0166 54.3525 23.4935 54.8285 24.0818 54.8285Z" fill="#414141"/>
<path d="M29.5515 56.6273C30.1398 56.6273 30.6168 56.1513 30.6168 55.5642C30.6168 54.977 30.1398 54.501 29.5515 54.501C28.9632 54.501 28.4863 54.977 28.4863 55.5642C28.4863 56.1513 28.9632 56.6273 29.5515 56.6273Z" fill="#414141"/>
<path d="M27.677 75.1103L27.4619 74.865C27.2886 74.6154 27.1668 74.3339 27.1034 74.0369C26.8679 72.9022 27.4619 71.5323 28.7013 70.6429C29.9406 69.7535 31.6613 69.5695 32.6549 70.3056C32.8275 70.4353 32.9794 70.5904 33.1055 70.7656C33.172 70.85 33.2271 70.9428 33.2694 71.0416C33.8942 72.2377 33.3104 73.9347 31.8764 74.9876C30.4425 76.0406 28.6296 76.061 27.677 75.1103Z" fill="white"/>
<path d="M29.5107 75.9998C28.7426 75.9998 28.0358 75.7545 27.5339 75.2536C27.4501 75.1698 27.3714 75.0811 27.2984 74.9878C27.1329 74.7511 27.0083 74.4885 26.9296 74.2108C26.9169 74.1614 26.9199 74.1092 26.9383 74.0616C26.9566 74.0139 26.9894 73.9732 27.0321 73.945C27.0728 73.9136 27.1224 73.8956 27.1738 73.8938C27.2253 73.892 27.276 73.9063 27.3189 73.9348C28.2714 74.5584 29.7566 74.4051 30.9344 73.5463C32.1123 72.6876 32.6859 71.4302 32.4503 70.3466L32.3377 69.8252L32.7781 70.1421C32.9669 70.2828 33.1327 70.4517 33.2697 70.643C33.3386 70.7406 33.4003 70.8431 33.4541 70.9497C34.1301 72.248 33.4951 74.0575 31.9894 75.1513C31.2724 75.6858 30.4055 75.9825 29.5107 75.9998ZM27.4725 74.4868C27.5237 74.5686 27.5749 74.6606 27.6364 74.7424C27.6922 74.8218 27.7538 74.897 27.8207 74.9673C28.7221 75.8567 30.4121 75.7954 31.7538 74.8242C33.0956 73.8428 33.6692 72.2583 33.0956 71.1337C33.0444 71.0519 33.0034 70.9702 32.942 70.8782L32.9112 70.8475C32.901 71.9311 32.2557 73.0965 31.1803 73.8735C30.1048 74.6504 28.5479 74.9469 27.4725 74.4868Z" fill="#414141"/>
<path d="M28.6909 74.7323C28.0778 74.7463 27.477 74.5596 26.9804 74.2007L26.9189 74.1496L26.8984 74.078C26.6424 72.841 27.3184 71.3894 28.5782 70.4693C29.838 69.5493 31.6817 69.3346 32.7776 70.1422L32.8391 70.1933V70.2649C33.1054 71.5018 32.4294 72.9535 31.1695 73.8735C30.4014 74.4358 29.5103 74.7323 28.6909 74.7323ZM27.2876 73.9144C28.2402 74.5687 29.7254 74.4256 30.934 73.5464C32.0504 72.7388 32.6547 71.4916 32.4703 70.4284C31.5178 69.7742 30.0326 69.9275 28.8138 70.8067C27.5949 71.6858 27.1033 72.8512 27.2876 73.9144Z" fill="#414141"/>
<path d="M32.7361 73.393C32.6968 73.3924 32.6586 73.3804 32.6259 73.3587C32.5932 73.3369 32.5675 73.3063 32.5518 73.2703L32.1216 72.3707C32.0985 72.3206 32.0963 72.2633 32.1155 72.2115C32.1347 72.1598 32.1738 72.1177 32.224 72.0947C32.2743 72.0716 32.3316 72.0695 32.3835 72.0886C32.4354 72.1078 32.4775 72.1468 32.5006 72.1969L32.9205 73.0965C32.9419 73.1469 32.9432 73.2035 32.9241 73.2548C32.9051 73.3061 32.8672 73.3482 32.8181 73.3726L32.7361 73.393Z" fill="#414141"/>
<path d="M31.7226 74.2617C31.6862 74.2601 31.6508 74.2488 31.6202 74.2291C31.5896 74.2093 31.5649 74.1818 31.5485 74.1492L31.2105 73.5461C31.1962 73.5221 31.187 73.4955 31.1834 73.4679C31.1797 73.4402 31.1818 73.4121 31.1895 73.3853C31.1972 73.3585 31.2103 73.3335 31.228 73.312C31.2457 73.2904 31.2676 73.2726 31.2924 73.2598C31.3405 73.2369 31.3954 73.2325 31.4465 73.2476C31.4976 73.2627 31.5412 73.2962 31.569 73.3416L31.907 73.955C31.9325 74.0025 31.9383 74.0581 31.9229 74.1098C31.9076 74.1615 31.8724 74.2051 31.825 74.231C31.795 74.2517 31.7591 74.2624 31.7226 74.2617Z" fill="#414141"/>
<path d="M29.9308 75.3455C29.8924 75.347 29.8544 75.3372 29.8215 75.3171C29.7887 75.2971 29.7626 75.2679 29.7464 75.233L29.3675 74.5072C29.343 74.4584 29.339 74.4019 29.3563 74.3501C29.3736 74.2984 29.4107 74.2556 29.4596 74.2312C29.5085 74.2068 29.5652 74.2028 29.617 74.22C29.6689 74.2373 29.7117 74.2744 29.7362 74.3232L30.1049 75.049C30.1305 75.0965 30.1362 75.1522 30.1209 75.2039C30.1055 75.2556 30.0703 75.2991 30.023 75.325L29.9308 75.3455Z" fill="#414141"/>
<path d="M28.2813 73.8732C28.1174 73.8732 27.8306 73.8016 27.7282 73.5563C27.6258 73.3109 27.9023 72.5749 28.7934 71.6957C29.6845 70.8165 30.4322 70.3974 31.0263 70.4485C31.1397 70.4531 31.2509 70.4809 31.3531 70.5302C31.4552 70.5794 31.5462 70.649 31.6204 70.7347C31.6494 70.7802 31.6602 70.8348 31.6507 70.8878C31.6412 70.9409 31.6121 70.9884 31.5692 71.021C31.5264 71.0504 31.4741 71.0625 31.4228 71.0549C31.3715 71.0474 31.3249 71.0206 31.2926 70.9801C31.2069 70.8993 31.0929 70.8553 30.9751 70.8574C30.7088 70.837 30.1147 70.9699 29.0802 71.9819C28.0457 72.994 28.0867 73.362 28.1072 73.3927C28.1277 73.4234 28.2506 73.4643 28.2813 73.4643H28.2916C28.3434 73.4665 28.3928 73.4874 28.4304 73.5231C28.4681 73.5588 28.4915 73.6069 28.4964 73.6585C28.4941 73.713 28.4721 73.7648 28.4344 73.8043C28.3968 73.8438 28.346 73.8683 28.2916 73.8732H28.2813Z" fill="#414141"/>
<path d="M34.7548 39.6781C33.8637 39.6781 33.372 39.0852 33.1467 38.6763C32.9009 38.9625 32.399 39.3101 31.4465 39.2079C30.1149 39.0545 29.8281 37.8687 29.7769 37.2758C29.398 37.4291 28.64 37.6847 28.005 37.1735C27.5236 36.7851 27.3495 36.1921 27.5236 35.5276C26.991 35.589 26.0487 35.4663 25.4751 34.8427C24.9015 34.2191 24.8708 33.6262 25.0859 32.7163C24.5737 32.8186 23.9899 32.8288 23.7441 32.5017C23.4983 32.1745 23.6212 31.8985 23.908 31.4385L24.2562 31.6532C23.9899 32.0825 24.0514 32.2256 24.0719 32.2563C24.0923 32.287 24.5328 32.4301 25.1781 32.2768C25.2273 32.2668 25.2783 32.269 25.3265 32.2832C25.3748 32.2975 25.4187 32.3234 25.4546 32.3585C25.4882 32.3973 25.5122 32.4434 25.5246 32.4931C25.5371 32.5429 25.5376 32.5948 25.5263 32.6448C25.2907 33.4933 25.3829 34.1373 25.7721 34.5667C26.1613 34.996 27.1856 35.1801 27.5441 35.1187C27.6028 35.1038 27.6646 35.1055 27.7224 35.1236C27.7803 35.1416 27.832 35.1753 27.8718 35.2209C27.9113 35.2666 27.9385 35.3215 27.9511 35.3804C27.9636 35.4394 27.961 35.5006 27.9435 35.5583C27.8309 35.9366 27.7899 36.4681 28.261 36.8566C28.7322 37.2451 29.3365 37.0304 29.7462 36.8362L29.7872 36.8157C29.8279 36.7963 29.873 36.788 29.918 36.7916C29.9629 36.7952 30.0061 36.8105 30.0432 36.8362C30.0812 36.861 30.1129 36.8942 30.136 36.9332C30.159 36.9722 30.1729 37.0159 30.1764 37.0611C30.1866 37.4291 30.3095 38.6661 31.4874 38.799C32.4092 38.9012 32.7882 38.5229 32.9316 38.2878C32.957 38.2434 32.9946 38.2073 33.04 38.1837C33.0855 38.1602 33.1367 38.1502 33.1877 38.1549C33.2362 38.1554 33.2835 38.1703 33.3236 38.1975C33.3637 38.2248 33.3948 38.2634 33.413 38.3083C33.5564 38.6149 33.9661 39.3203 34.847 39.2692C35.7278 39.2181 35.9122 38.7172 35.9941 38.4105C36.0047 38.363 36.0286 38.3195 36.0631 38.2851C36.0975 38.2507 36.1411 38.2268 36.1887 38.2163C36.238 38.2063 36.289 38.2085 36.3372 38.2227C36.3854 38.237 36.4294 38.2629 36.4653 38.298C36.7623 38.6354 37.5612 39.3612 38.524 38.799C39.4868 38.2367 39.2615 37.7562 39.0566 37.3575C39.0324 37.3063 39.0234 37.2493 39.0307 37.1931C39.0379 37.1369 39.0611 37.084 39.0976 37.0406C39.1373 37.0018 39.1875 36.9753 39.2421 36.9644C39.2966 36.9535 39.3532 36.9587 39.4049 36.9793C39.876 37.1633 40.9617 37.3371 41.2587 36.9895C41.5558 36.6419 41.1563 35.7423 41.0027 35.497C40.9793 35.4552 40.9653 35.4089 40.9618 35.3612C40.9582 35.3135 40.9652 35.2657 40.9822 35.2209C41.0019 35.1772 41.0317 35.1387 41.069 35.1085C41.1064 35.0783 41.1503 35.0573 41.1973 35.0472C41.4943 34.9858 42.4674 34.7303 42.8054 34.0453C42.9897 33.6568 42.9488 33.1764 42.6825 32.6243C42.6542 32.5694 42.6421 32.5076 42.6475 32.4461C42.6529 32.3846 42.6757 32.3259 42.7132 32.2768C42.7522 32.2266 42.8047 32.1885 42.8645 32.1668C42.9243 32.1451 42.989 32.1407 43.0512 32.1541C43.4404 32.2256 44.3725 32.3483 44.4749 31.8167L44.8743 31.8985C44.7514 32.5017 44.1164 32.747 43.1126 32.5732C43.3789 33.1968 43.3994 33.7488 43.1741 34.2191C42.8054 34.9654 41.9143 35.2925 41.4329 35.4152C41.6787 35.865 42.0474 36.7135 41.5763 37.2553C41.1051 37.7971 40.0809 37.6029 39.5278 37.4495C39.6609 37.8789 39.6814 38.6047 38.7289 39.1568C37.7763 39.7088 36.7316 39.1363 36.3116 38.7376C36.158 39.1057 35.779 39.627 34.8674 39.6781H34.7548Z" fill="#414141"/>
<path d="M21.07 28.8829C20.5876 28.8718 20.1143 28.7494 19.6873 28.5251L19.6463 28.5047C19.6041 28.4898 19.5675 28.462 19.5418 28.4254C19.5161 28.3887 19.5025 28.345 19.5029 28.3002C19.5029 28.246 19.5245 28.194 19.5629 28.1556C19.6014 28.1173 19.6535 28.0958 19.7078 28.0958C19.7702 28.1007 19.8302 28.1218 19.8819 28.1571C21.2134 28.842 22.4425 28.4024 23.4361 26.8792C23.4506 26.8561 23.4697 26.8362 23.4921 26.8206C23.5145 26.8049 23.5398 26.7939 23.5665 26.7882C23.5932 26.7825 23.6208 26.7822 23.6477 26.7873C23.6745 26.7924 23.7001 26.8028 23.7228 26.8179C23.7448 26.8323 23.7637 26.8509 23.7782 26.8728C23.7928 26.8946 23.8027 26.9192 23.8075 26.945C23.8123 26.9708 23.8118 26.9973 23.8061 27.0229C23.8003 27.0485 23.7894 27.0726 23.7741 27.0939C23.0161 28.2798 22.084 28.8829 21.07 28.8829Z" fill="white"/>
<path d="M54.6863 53.4789H54.6556C54.6022 53.4689 54.5545 53.4391 54.5222 53.3955C54.4899 53.3519 54.4753 53.2977 54.4815 53.2438C54.5122 53.1006 56.6426 38.2979 53.4265 34.2189C53.406 34.1985 51.7877 32.1335 50.9478 31.5303C50.3537 31.1009 50.3742 30.2627 50.7225 29.7311C51.0707 29.1995 51.5931 29.0768 52.1154 29.3835C52.1391 29.3962 52.1598 29.4136 52.1764 29.4346C52.193 29.4557 52.205 29.4799 52.2117 29.5059C52.2185 29.5318 52.2198 29.5588 52.2155 29.5853C52.2113 29.6117 52.2016 29.637 52.1871 29.6595C52.1595 29.705 52.1151 29.738 52.0634 29.7514C52.0118 29.7647 51.9569 29.7574 51.9106 29.7311C51.4497 29.4653 51.1629 29.7924 51.0605 29.9458C50.8146 30.3342 50.8044 30.9272 51.1834 31.193C52.0745 31.837 53.6825 33.8816 53.744 33.9634C57.0728 38.1854 54.9833 52.6917 54.8911 53.3051C54.8837 53.3538 54.8589 53.3983 54.8213 53.4302C54.7836 53.4622 54.7357 53.4794 54.6863 53.4789Z" fill="#414141"/>
</svg>
