<svg width="310" height="274" viewBox="0 0 310 274" fill="none" xmlns="http://www.w3.org/2000/svg">
<path d="M80.0667 239.659C68.7892 218.065 44.9045 210.198 28.7933 218.254C15.1762 225.062 11.4943 241.048 10.5693 247.208H80.278L80.0667 239.659Z" stroke="#414141" stroke-linecap="round" stroke-linejoin="round"/>
<path d="M26.7608 175.561H12.6465V197.997H26.7608V175.561Z" fill="#414141"/>
<path d="M117.393 89.6386C117.393 89.6386 121.57 81.4569 119.8 76.5076C118.03 71.5583 114.355 66.374 107.139 68.6976C102.836 69.7743 104.987 71.9946 101.442 70.7269C97.8964 69.4593 95.1524 70.6624 93.1375 71.7416C91.1226 72.8208 90.999 76.6883 89.4788 78.147C87.9587 79.6057 84.7946 78.2735 83.4651 82.5877C82.1356 86.9019 87.5155 92.8065 85.7119 96.2583C83.9083 99.7102 77.4515 98.5819 76.882 108.847C76.3126 119.112 96.3093 113.794 98.5586 111.605C100.808 109.415 117.393 89.6386 117.393 89.6386Z" fill="#25383F" stroke="#414141" stroke-linecap="round" stroke-linejoin="round"/>
<path d="M98.0251 107.27C98.0251 107.27 89.7312 121.225 90.4294 122.43C91.1277 123.636 99.2902 126.427 105.631 124.968C106.644 124.71 110.947 107.779 110.947 107.779C110.947 107.779 98.4992 106.465 98.0251 107.27Z" fill="white" stroke="#414141" stroke-linecap="round" stroke-linejoin="round"/>
<path d="M116.666 81.7412C116.666 81.7412 121.394 96.3929 115.945 106.01C110.495 115.627 94.6365 107.817 94.6365 107.817C94.6365 107.817 94.0052 104.647 94.8941 104.487C95.783 104.327 91.4828 100.937 93.1395 98.3344C94.7962 95.732 98.1535 95.7345 99.6092 99.4781C100.496 100.81 102.289 98.59 100.663 95.2905C99.0372 91.9909 98.9986 88.188 100.663 87.2869C102.327 86.3859 107.073 83.866 110.938 85.1337C114.803 86.4013 116.633 83.866 116.666 81.7412Z" fill="white" stroke="#414141" stroke-linecap="round" stroke-linejoin="round"/>
<path d="M9.10084 273.347H300.896C305.479 273.347 309.195 267.476 309.195 260.231C309.195 252.987 305.479 247.116 300.896 247.116H9.10084C4.51715 247.116 0.801758 252.987 0.801758 260.231C0.801758 267.476 4.52746 273.347 9.10084 273.347Z" stroke="#414141" stroke-linecap="round" stroke-linejoin="round"/>
<path d="M116.002 247.286C116.002 247.286 233.866 247.952 236.932 246.049C239.999 244.147 238.355 241.991 238.355 241.991L237.723 229.812C237.723 229.812 141.827 209.39 136.705 210.697C131.582 212.003 116.002 247.286 116.002 247.286Z" fill="white" stroke="#414141" stroke-linecap="round" stroke-linejoin="round"/>
<path d="M237.723 229.802C237.723 229.802 242.025 234.557 238.354 241.98C235.643 240.903 232.657 234.374 237.723 229.802Z" fill="white" stroke="#414141" stroke-linecap="round" stroke-linejoin="round"/>
<path d="M238.007 231.093C238.007 231.093 242.045 235.26 238.6 241.761C236.047 240.811 233.254 235.082 238.007 231.093Z" fill="#414141"/>
<path d="M289.241 50.2726L239.139 12.5923C231.611 6.93027 220.927 8.45579 215.277 15.9996L119.978 143.23C114.327 150.774 115.85 161.479 123.378 167.141L173.48 204.822C181.009 210.484 191.692 208.958 197.343 201.414L292.642 74.1838C298.292 66.64 296.77 55.9346 289.241 50.2726Z" fill="#414141"/>
<path d="M286.591 48.4924L236.489 10.812C228.96 5.15001 218.277 6.67552 212.626 14.2193L117.328 141.45C111.677 148.994 113.2 159.699 120.728 165.361L170.83 203.041C178.358 208.703 189.042 207.178 194.692 199.634L289.991 72.4036C295.642 64.8598 294.119 54.1544 286.591 48.4924Z" fill="white" stroke="#414141" stroke-linecap="round" stroke-linejoin="round"/>
<path d="M122.043 144.874C120.263 147.251 119.499 150.239 119.918 153.181C120.337 156.123 121.905 158.777 124.277 160.561L174.381 198.24C175.556 199.123 176.893 199.766 178.316 200.132C179.738 200.497 181.219 200.579 182.673 200.371C184.128 200.163 185.527 199.67 186.791 198.92C188.055 198.171 189.159 197.179 190.041 196.001L195.047 189.314L126.823 138.492L122.043 144.874Z" fill="white" stroke="#414141" stroke-linecap="round" stroke-linejoin="round"/>
<path d="M283.096 53.0756L232.99 15.3995C231.816 14.5153 230.479 13.8717 229.056 13.5055C227.634 13.1393 226.153 13.0577 224.699 13.2653C223.245 13.473 221.845 13.9658 220.582 14.7157C219.318 15.4655 218.213 16.4576 217.332 17.6353L126.823 138.492L195.048 189.314L285.328 68.7652C287.105 66.3871 287.868 63.3995 287.45 60.4581C287.032 57.5166 285.466 54.8616 283.096 53.0756Z" fill="white" stroke="#414141" stroke-linecap="round" stroke-linejoin="round"/>
<path d="M210.676 51.8184L256.325 85.3507L254.426 87.633L209.23 53.7134L210.676 51.8184Z" fill="white" stroke="#414141" stroke-linecap="round" stroke-linejoin="round"/>
<path d="M202.442 60.7612L248.09 94.2936L246.191 96.5759L200.996 62.6563L202.442 60.7612Z" fill="white" stroke="#414141" stroke-linecap="round" stroke-linejoin="round"/>
<path d="M194.205 69.7046L239.854 103.237L237.955 105.519L192.76 71.5996L194.205 69.7046Z" fill="white" stroke="#414141" stroke-linecap="round" stroke-linejoin="round"/>
<path d="M187.603 79.2598L233.251 112.79L231.353 115.072L186.157 81.1522L187.603 79.2598Z" fill="white" stroke="#414141" stroke-linecap="round" stroke-linejoin="round"/>
<path d="M180.032 89.4297L225.681 122.959L223.782 125.242L178.587 91.3221L180.032 89.4297Z" fill="white" stroke="#414141" stroke-linecap="round" stroke-linejoin="round"/>
<path d="M219.482 40.8169L230.242 48.8076L228.216 51.5649L217.583 43.7343L219.482 40.8169Z" fill="white" stroke="#414141" stroke-linecap="round" stroke-linejoin="round"/>
<path d="M153.202 140.273L182.289 163.592L201.814 138.561L173.969 114.646L153.202 140.273Z" fill="#414141"/>
<path d="M156.962 139.868L174.312 118.457L198.148 138.928L181.851 159.82L156.962 139.868Z" fill="white" stroke="#414141" stroke-linecap="round" stroke-linejoin="round"/>
<path d="M164.404 119.342L170.227 143.573L209.218 131.456L205.928 122.007L175.924 132.156L172.252 117.948L164.404 119.342Z" fill="#FD500A" stroke="#414141" stroke-linecap="round" stroke-linejoin="round"/>
<path d="M68.6538 215.731C68.6538 215.731 61.3106 232.603 69.4113 244.526C77.512 256.449 114.006 276.398 152.459 210.467C179.234 235.869 190.914 244.146 205.724 239.579L211.707 229.02C211.707 229.02 183.728 185.811 163.757 181.543C145.371 177.616 128.816 188.204 122.645 196.776C121.316 195.064 118.943 198.394 118.943 198.394C117.613 197.062 109.732 199.915 109.732 199.915L68.6538 215.731Z" fill="white" stroke="#414141" stroke-linecap="round" stroke-linejoin="round"/>
<path d="M66.6787 217.967C66.6787 217.967 79.5898 222.408 93.7068 215.873C107.824 209.339 115.226 203.346 115.226 203.346L102.506 202.745L68.1345 215.176L66.6787 217.967Z" fill="#414141"/>
<path d="M42.0584 242.838C42.0584 242.838 35.7923 241.632 35.2228 244.805C34.6534 247.978 43.7049 247.531 48.1339 247.087C52.563 246.643 52.6275 242.902 52.3131 241.57C51.9988 240.238 52.9444 236.623 52.9444 236.623L46.8689 233.959C46.8689 233.959 45.9825 237.057 45.0009 238.209C44.0192 239.36 39.0748 238.588 35.6016 237.922C32.1284 237.256 21.9304 244.002 21.9304 244.002C21.9304 244.002 20.4721 246.507 25.9163 246.254C29.337 246.105 32.7635 246.17 36.1762 246.447" fill="white"/>
<path d="M42.0584 242.838C42.0584 242.838 35.7923 241.632 35.2228 244.805C34.6534 247.978 43.7049 247.531 48.1339 247.087C52.563 246.643 52.6275 242.902 52.3131 241.57C51.9988 240.238 52.9444 236.623 52.9444 236.623L46.8689 233.959C46.8689 233.959 45.9825 237.057 45.0009 238.209C44.0192 239.36 39.0748 238.588 35.6016 237.922C32.1284 237.256 21.9304 244.002 21.9304 244.002C21.9304 244.002 20.4721 246.507 25.9163 246.254C29.337 246.105 32.7635 246.17 36.1762 246.447" stroke="#414141" stroke-linecap="round" stroke-linejoin="round"/>
<path d="M69.0692 142.974C69.0692 142.974 54.272 178.832 48.6062 211.241C46.4213 226.022 44.999 235.162 44.999 235.162C44.999 235.162 46.8026 238.776 52.9863 237.744C58.1137 228.325 77.7213 185.759 82.6657 182.589C83.4154 175.091 69.0692 142.974 69.0692 142.974Z" fill="#FD500A" stroke="#414141" stroke-linecap="round" stroke-linejoin="round"/>
<path d="M65.4889 214.081C65.4889 214.081 54.6029 157.695 75.3004 131.627C95.9978 105.558 115.907 122.27 118.945 131.309C121.982 140.348 128.787 164.736 116.883 202.156C106 210.655 66.0583 224.166 65.4889 214.081Z" fill="#FD500A" stroke="#414141" stroke-linecap="round" stroke-linejoin="round"/>
<path d="M216.137 247.699L216.771 249.096C216.771 249.096 221.836 246.937 227.912 239.579C233.987 232.221 240.127 223.533 237.342 223.314C234.556 223.094 229.494 226.071 229.494 226.071L216.137 247.699Z" fill="#25383F" stroke="#414141" stroke-linecap="round" stroke-linejoin="round"/>
<path d="M219.955 243.984C218.799 246.307 216.523 248.2 213.944 248.768C214.175 248.859 214.41 248.936 214.65 248.997C220.347 250.425 225.949 235.678 228.894 229.97C229.734 228.311 230.926 226.856 232.385 225.706C233.844 224.557 235.535 223.739 237.342 223.311C237.1 222.599 236.822 221.9 236.507 221.217C227.141 224.192 224.171 235.531 219.955 243.984Z" fill="white" stroke="#414141" stroke-linecap="round" stroke-linejoin="round"/>
<path d="M204.352 239.355C204.352 239.355 202.927 235.998 206.346 232.41C209.765 228.821 210.935 229.028 210.935 229.028C210.935 229.028 211.252 230.794 210.111 233.045C208.969 235.296 205.555 240.579 204.352 239.355Z" fill="#414141"/>
<path d="M219.956 243.984C224.171 235.531 227.152 224.192 236.508 221.218C235.913 219.927 235.08 218.571 234.305 218.768C232.88 219.124 213.11 229.59 211.412 229.541C209.714 229.492 205.156 237.39 205.156 237.39C205.156 237.39 208.642 246.726 213.945 248.768C216.524 248.2 218.799 246.302 219.956 243.984Z" fill="white" stroke="#414141" stroke-linecap="round" stroke-linejoin="round"/>
<path d="M111.39 130.204C111.39 130.204 97.1493 132.487 98.6669 146.568C100.185 160.649 112.719 180.438 129.05 182.15C145.38 183.862 164.181 167.88 167.788 159.317C169.548 156.035 162.777 151.912 160.574 152.467C160.574 152.467 135.507 172.636 121.645 142.762C117.656 133.63 113.827 129.548 111.39 130.204Z" fill="#FD500A" stroke="#414141" stroke-linecap="round" stroke-linejoin="round"/>
<path d="M160.409 153.404C158.688 154.61 156.567 155.686 159.796 159.492C163.024 163.297 165.848 163.543 167.106 159.84C168.363 156.138 162.138 152.198 160.409 153.404Z" fill="#414141"/>
<path d="M160.51 154.749C160.51 154.749 168.105 145.173 172.725 144.664C177.345 144.156 182.727 145.108 183.614 147.267C184.5 149.425 180.007 150.311 180.007 150.311C180.007 150.311 181.905 156.59 177.664 157.16C173.423 157.731 169.371 153.99 169.371 153.99C169.371 153.99 166.732 160.749 165.233 161.167C163.357 161.697 159.688 158.366 160.51 154.749Z" fill="white" stroke="#414141" stroke-width="2" stroke-linecap="round" stroke-linejoin="round"/>
<path d="M253.119 244.575C253.119 244.575 249.388 245.551 249.388 239.153C249.388 232.755 253.229 216.296 250.485 211.579C247.741 206.862 253.778 211.252 254.984 216.077C256.19 220.902 259.374 242.602 253.119 244.575Z" fill="#25383F" stroke="#414141" stroke-linecap="round" stroke-linejoin="round"/>
<path d="M247.633 210.328C243.869 212.607 242.138 220.99 241.888 225.349C241.594 230.466 236.992 233.463 236.992 233.463C232.47 239.471 236.992 245.234 236.992 245.234L249.267 244.759C251.104 233.326 251.877 221.125 247.633 210.328Z" fill="white" stroke="#414141" stroke-linecap="round" stroke-linejoin="round"/>
<path d="M249.787 209.744C249.027 209.72 248.277 209.923 247.633 210.328C251.866 221.125 251.093 233.326 249.259 244.758L252.569 244.629C252.569 244.629 253.52 216.137 249.787 209.744Z" fill="white" stroke="#414141" stroke-linecap="round" stroke-linejoin="round"/>
<path d="M90.9529 217.02C90.9529 217.02 85.7998 240.45 104.444 237.202C123.088 233.954 142.559 190.729 156.173 194.938C169.788 199.146 197.14 231.083 203.687 233.236" stroke="#414141" stroke-linecap="round" stroke-linejoin="round" stroke-dasharray="4 4"/>
<path d="M252.372 46.6674C254.994 46.6674 257.12 44.537 257.12 41.9091C257.12 39.2812 254.994 37.1509 252.372 37.1509C249.749 37.1509 247.623 39.2812 247.623 41.9091C247.623 44.537 249.749 46.6674 252.372 46.6674Z" fill="white" stroke="#414141" stroke-linecap="round" stroke-linejoin="round"/>
<path d="M308.036 185.906H236.511V188.284H308.036V185.906Z" fill="white" stroke="#414141" stroke-linecap="round" stroke-linejoin="round"/>
<path d="M300.628 172.851H292.02V185.791H300.628V172.851Z" fill="#414141"/>
<path d="M285.437 163.355H271.322V185.791H285.437V163.355Z" fill="white" stroke="#414141" stroke-linecap="round" stroke-linejoin="round"/>
<path d="M33.8185 181.463H19.7041V203.899H33.8185V181.463Z" fill="white" stroke="#414141" stroke-linecap="round" stroke-linejoin="round"/>
<path d="M294.553 237.511H279.361V250.508H294.553V237.511Z" fill="white" stroke="#414141" stroke-linecap="round" stroke-linejoin="round"/>
</svg>
