<svg width="316" height="302" viewBox="0 0 316 302" fill="none" xmlns="http://www.w3.org/2000/svg">
<path d="M186.701 232.193C224.955 238.2 247.523 234.622 261.369 229.695C264.713 228.506 279.336 223.041 293.047 228.603C295.819 229.729 302.152 232.295 303.245 237.7C304.239 242.614 300.606 248.416 294.138 252.244C302.903 248.08 312.432 252.634 314.537 259.518C316.167 264.856 313.336 271.613 307.251 275.162H175.733L186.701 232.193Z" stroke="#414141" stroke-linecap="round" stroke-linejoin="round"/>
<path d="M17.4532 275.29C1.10327 263.624 -2.24849 246.319 3.82655 238.647C9.29102 231.74 21.855 233.324 23.4976 233.544C16.7507 221.48 17.7343 206.953 25.6921 197.538C35.8853 185.456 56.2052 183.338 70.8563 194.986C90.2719 188.337 111.56 193.389 124.76 207.719C140.362 224.646 141.11 255.179 126.824 275.359L17.4532 275.29Z" stroke="#414141" stroke-linecap="round" stroke-linejoin="round"/>
<path d="M39.5127 119.029L60.2618 115.433C61.8151 115.178 62.5457 117.278 61.1585 118.023L49.8566 124.096L39.5127 119.029Z" fill="white" stroke="#414141" stroke-linecap="round" stroke-linejoin="round"/>
<path d="M24.0156 119.574L54.613 135.499L66.219 141.829C66.886 142.194 67.666 142.295 68.404 142.111C69.1419 141.928 69.7837 141.474 70.2017 140.839L74.6034 134.175C74.6689 134.072 74.7023 133.953 74.6995 133.831C74.6967 133.71 74.6577 133.592 74.5876 133.492C74.5175 133.393 74.4193 133.317 74.3057 133.273C74.192 133.23 74.068 133.221 73.9494 133.248L67.6164 134.713L61.8939 131.878C55.1265 124.109 41.1473 117.163 30.0472 112.899C27.237 112.241 21.4098 111.292 18.8245 114.507C17.4986 116.145 24.0156 119.574 24.0156 119.574Z" fill="white" stroke="#414141" stroke-linecap="round" stroke-linejoin="round"/>
<path d="M32.0769 121.671L12.9934 136.093C11.3968 137.3 12.8248 139.793 14.6744 139.03L41.4654 127.989C41.7745 127.861 42.0392 127.645 42.2266 127.368C42.4141 127.091 42.516 126.766 42.5198 126.431C42.5236 126.097 42.4291 125.769 42.2481 125.488C42.067 125.207 41.8073 124.985 41.5012 124.85L33.7937 121.467C33.5152 121.345 33.2093 121.3 32.9076 121.336C32.6058 121.372 32.3191 121.488 32.0769 121.671Z" fill="white" stroke="#414141" stroke-linecap="round" stroke-linejoin="round"/>
<path d="M61.3059 135.697L57.8877 141.099L59.7117 142.709L67.4218 139.591L61.3059 135.697Z" fill="white" stroke="#414141" stroke-linecap="round" stroke-linejoin="round"/>
<path d="M21.4814 112.723C21.4814 112.723 22.6821 116.589 26.8003 115.961C30.9184 115.333 31.0564 113.279 31.0564 113.279" fill="white"/>
<path d="M21.4814 112.723C21.4814 112.723 22.6821 116.589 26.8003 115.961C30.9184 115.333 31.0564 113.279 31.0564 113.279" stroke="#414141" stroke-width="2" stroke-linecap="round" stroke-linejoin="round"/>
<path d="M72.084 143.941C72.084 143.941 181.659 273.984 312.114 267.084" stroke="#414141" stroke-linecap="round" stroke-linejoin="round" stroke-dasharray="6 6"/>
<path d="M202.65 254.523C202.648 247.812 201.117 241.188 198.172 235.155C195.227 229.122 190.946 223.837 185.654 219.701C180.361 215.565 174.196 212.687 167.624 211.284C161.053 209.881 154.248 209.99 147.725 211.603C141.202 213.216 135.132 216.291 129.975 220.594C124.818 224.897 120.709 230.317 117.96 236.441C115.21 242.565 113.893 249.235 114.106 255.943C114.32 262.651 116.06 269.223 119.193 275.161H197.538C200.903 268.802 202.658 261.716 202.65 254.523Z" fill="#FFA076"/>
<path d="M141.258 69.7593H85.4863V76.3679H141.258V69.7593Z" fill="white" stroke="#414141" stroke-linecap="round" stroke-linejoin="round"/>
<path d="M128.485 30.8064C128.487 28.3335 127.881 25.8979 126.72 23.7138C125.559 21.5296 123.878 19.6638 121.826 18.2804C119.774 16.897 117.413 16.0383 114.951 15.7799C112.488 15.5215 110 15.8712 107.705 16.7984C105.41 17.7255 103.378 19.2017 101.787 21.0971C100.197 22.9925 99.0974 25.2491 98.585 27.6685C98.0726 30.0878 98.1632 32.5959 98.8487 34.9721C99.5342 37.3483 100.794 39.5199 102.516 41.296H102.493C102.493 41.296 106.79 46.6773 106.911 50.6298C106.982 52.9262 106.969 53.633 106.949 53.8167H119.786C119.763 53.633 119.753 52.9313 119.822 50.6298C119.945 46.6773 124.241 41.296 124.241 41.296C126.968 38.4835 128.49 34.721 128.485 30.8064Z" fill="white" stroke="#414141" stroke-linecap="round" stroke-linejoin="round"/>
<path d="M106.947 53.8145H106.909C106.909 53.8145 106.929 53.9462 106.947 53.8145Z" fill="white" stroke="#414141" stroke-width="2" stroke-linecap="round" stroke-linejoin="round"/>
<path d="M119.822 53.8145H119.786C119.801 53.9462 119.822 53.8145 119.822 53.8145Z" fill="white" stroke="#414141" stroke-width="2" stroke-linecap="round" stroke-linejoin="round"/>
<path d="M110.182 48.0756V35.708C110.182 35.708 107.739 34.7027 108.194 37.3564C108.649 40.01 114.346 37.882 113.963 35.8994C113.579 33.9168 110.642 37.6677 113.676 38.7929C116.711 39.9182 119.637 37.165 118.249 35.5396C116.862 33.9143 116.126 37.165 116.093 40.2754V48.3104" stroke="#414141" stroke-linecap="round" stroke-linejoin="round"/>
<path d="M122.979 49.1606H103.765C102.989 49.1606 102.36 49.7884 102.36 50.5627C102.36 51.3371 102.989 51.9648 103.765 51.9648H122.979C123.755 51.9648 124.384 51.3371 124.384 50.5627C124.384 49.7884 123.755 49.1606 122.979 49.1606Z" fill="white" stroke="#414141" stroke-linecap="round" stroke-linejoin="round"/>
<path d="M122.979 52.6025H103.765C102.989 52.6025 102.36 53.2303 102.36 54.0046C102.36 54.779 102.989 55.4067 103.765 55.4067H122.979C123.755 55.4067 124.384 54.779 124.384 54.0046C124.384 53.2303 123.755 52.6025 122.979 52.6025Z" fill="white" stroke="#414141" stroke-linecap="round" stroke-linejoin="round"/>
<path d="M122.979 56.0444H103.765C102.989 56.0444 102.36 56.6722 102.36 57.4465C102.36 58.2209 102.989 58.8486 103.765 58.8486H122.979C123.755 58.8486 124.384 58.2209 124.384 57.4465C124.384 56.6722 123.755 56.0444 122.979 56.0444Z" fill="white" stroke="#414141" stroke-linecap="round" stroke-linejoin="round"/>
<path d="M107.085 58.8516H119.667C119.667 60.205 119.128 61.503 118.17 62.4601C117.212 63.4171 115.913 63.9548 114.557 63.9548H112.194C110.839 63.9548 109.54 63.4171 108.581 62.4601C107.623 61.503 107.085 60.205 107.085 58.8516Z" fill="white" stroke="#414141" stroke-linecap="round" stroke-linejoin="round"/>
<path d="M224.664 154.332C224.664 154.332 226.572 155.718 226.58 157.473" stroke="#414141" stroke-width="2" stroke-linecap="round" stroke-linejoin="round"/>
<path d="M72.6526 210.089L32.1787 230.64V275.362H72.6526V210.089Z" fill="white" stroke="#414141" stroke-linecap="round" stroke-linejoin="round"/>
<path d="M263.57 205.963L237.816 220.987V275.361H263.57V205.963Z" fill="white" stroke="#414141" stroke-linecap="round" stroke-linejoin="round"/>
<path d="M298.959 183.627H283.81V275.365H298.959V183.627Z" fill="white" stroke="#414141" stroke-linecap="round" stroke-linejoin="round"/>
<path d="M114.931 185.921V174.36H98.8515V139.518H94.2173V174.36H90.9473V185.921H86.1445V275.362H122.237V185.921H114.931Z" fill="white" stroke="#414141" stroke-linecap="round" stroke-linejoin="round"/>
<path d="M17.4533 301.218H306.771C311.316 301.218 315 295.415 315 288.256C315 281.096 311.316 275.293 306.771 275.293H17.4533C12.9085 275.293 9.22461 281.096 9.22461 288.256C9.22461 295.415 12.9187 301.218 17.4533 301.218Z" stroke="#414141" stroke-linecap="round" stroke-linejoin="round"/>
<path d="M177.475 276.222C177.475 276.332 179.024 285.12 170.726 286.5L145.435 272.385C150.304 262.627 162.633 269.323 162.633 269.323L164.137 267.075L177.475 276.222Z" fill="white" stroke="#414141" stroke-linecap="round" stroke-linejoin="round"/>
<path d="M163.04 268.728L177.387 280.121L178.003 275.799L163.929 267.736L163.04 268.728Z" fill="#414141"/>
<path d="M218.389 261.576C218.389 261.576 224.883 267.103 222.816 271.303C220.75 275.503 219.452 281.177 216.647 282.134L198.649 281.976C197.985 274.913 208.579 271.77 208.579 271.77L207.693 268.938L218.389 261.576Z" fill="white" stroke="#414141" stroke-linecap="round" stroke-linejoin="round"/>
<path d="M208.418 271.266C208.418 271.266 215.852 270.457 218.033 267.77C220.215 265.084 220.823 263.823 220.823 263.823L219.697 263.282L207.677 269.641L208.418 271.266Z" fill="#414141"/>
<path d="M170.098 141.993C170.098 141.993 168.596 192.058 181.875 221.569C195.154 251.081 205.445 271.634 205.445 271.634C205.445 271.634 220.456 267.914 220.824 259.808C209.685 237.925 192.275 183.77 194.046 171.612C195.816 159.453 195.435 136.688 195.435 136.688L170.098 141.993Z" fill="white" stroke="#414141" stroke-linecap="round" stroke-linejoin="round"/>
<path d="M184.197 132.707L160.949 266.329C160.949 266.329 180.929 280.919 180.068 279.598C179.208 278.276 210.725 159.902 210.725 159.902C210.725 159.902 216.169 142.018 212.63 136.205C209.092 130.393 184.197 132.707 184.197 132.707Z" fill="white" stroke="#414141" stroke-linecap="round" stroke-linejoin="round"/>
<path d="M170.047 144.554C170.047 144.554 181.121 143.263 182.054 142.411C190.691 141.9 195.257 140.683 199.888 142.822C204.52 144.96 212.608 145.644 213.471 144.554C213.819 139.655 213.727 138.022 213.727 138.022L181.226 135.026L170.047 138.573V144.554Z" fill="#414141"/>
<path d="M173.283 58.8789C173.283 58.8789 168.94 59.7643 168.154 63.0788C167.456 66.0617 163.264 93.6547 162.592 101.164L149.489 92.9198C149.489 92.9198 137.684 95.3515 139.602 102.572C139.602 102.572 158.666 119.737 163.361 118.413C168.057 117.089 169.472 111.523 169.472 111.523C174.461 99.2426 183.06 64.3393 173.283 58.8789Z" fill="#FD500A" stroke="#414141" stroke-linecap="round" stroke-linejoin="round"/>
<path d="M170.698 59.543C170.698 59.543 184.705 47.5658 186.941 47.1448C189.176 46.7238 203.23 46.2798 203.23 46.2798C203.23 46.2798 214.726 52.6894 216.619 54.2382C218.512 55.787 211.972 107.73 213.522 123.642C215.073 139.553 220.995 139.115 213.865 141.84C206.735 144.565 203.342 140.513 194.932 140.293C186.522 140.074 166.899 146.555 166.971 142.207C167.014 139.656 168.299 111.443 169.347 88.6772" fill="#FD500A"/>
<path d="M170.698 59.543C170.698 59.543 184.706 47.5658 186.941 47.1448C189.176 46.7238 203.23 46.2798 203.23 46.2798C203.23 46.2798 214.726 52.6894 216.619 54.2382C218.512 55.787 211.972 107.73 213.522 123.642C215.073 139.553 220.995 139.115 213.865 141.84C206.735 144.565 203.342 140.513 194.932 140.293C186.522 140.074 166.899 146.555 166.971 142.207C167.014 139.656 168.299 111.443 169.347 88.6772" stroke="#414141" stroke-linecap="round" stroke-linejoin="round"/>
<path d="M236.167 142.653H225.619C225.619 142.653 224.957 148.621 223.925 149.361C223.246 149.846 222.597 152.142 222.903 153.89C222.875 153.979 222.85 154.084 222.824 154.196C222.096 157.462 226.965 159.394 226.965 159.394C227.078 160.159 227.165 161.04 227.236 162.035C228.258 163.14 235.281 161.665 237.894 157.758C240.508 153.852 236.167 142.653 236.167 142.653ZM226.58 157.452C226.749 158.078 226.878 158.714 226.968 159.356C226.932 159.208 226.746 158.279 226.58 157.465V157.452Z" fill="white" stroke="#414141" stroke-linecap="round" stroke-linejoin="round"/>
<path d="M215.837 53.6719C215.837 53.6719 225.463 59.0302 226.017 67.4275C226.571 75.8249 238.604 144.351 237.866 145.088C237.127 145.825 225.473 145.381 223.258 142.876C217.477 117.194 213.951 98.1717 212.168 84.6559" fill="#FD500A"/>
<path d="M215.837 53.6719C215.837 53.6719 225.463 59.0302 226.017 67.4275C226.571 75.8249 238.604 144.351 237.866 145.088C237.127 145.825 225.473 145.381 223.258 142.876C217.477 117.194 213.951 98.1717 212.168 84.6559" stroke="#414141" stroke-linecap="round" stroke-linejoin="round"/>
<path d="M191.758 40.9003H185.415C185.415 40.9003 179.511 29.1859 181.072 25.7234C178.196 20.0487 182.546 12.8276 182.546 12.8276C182.546 12.8276 207.557 4.64976 203.571 24.0266C199.586 43.4034 199.072 46.0597 199.072 46.0597C199.072 46.0597 193.613 52.8367 185.571 48.7108L187.712 46.2791L187.931 40.9003" fill="white"/>
<path d="M191.758 40.9003H185.415C185.415 40.9003 179.511 29.1859 181.072 25.7234C178.196 20.0487 182.546 12.8276 182.546 12.8276C182.546 12.8276 207.557 4.64976 203.571 24.0266C199.586 43.4034 199.072 46.0597 199.072 46.0597C199.072 46.0597 193.613 52.8367 185.571 48.7108L187.712 46.2791L187.931 40.9003" stroke="#414141" stroke-linecap="round" stroke-linejoin="round"/>
<path d="M194.249 49.3995C194.249 49.3995 196.597 49.7771 197.261 53.6708C203.456 50.5655 204.925 49.0933 204.925 49.0933C204.925 49.0933 204.039 44.0819 201.604 42.8291C197.703 45.0388 194.481 47.8634 194.249 49.3995Z" fill="white" stroke="#414141" stroke-linecap="round" stroke-linejoin="round"/>
<path d="M184.721 46.2792C184.721 46.2792 187.835 46.0751 189.192 49.9229C188.078 50.1985 186.011 51.3237 186.711 53.6712C184.389 52.7756 183.135 49.2034 183.135 49.2034C183.135 49.2034 182.912 47.2233 184.721 46.2792Z" fill="white" stroke="#414141" stroke-linecap="round" stroke-linejoin="round"/>
<path d="M176.489 3.76473C176.364 4.04286 175.161 18.5028 185.942 15.9971C193.317 14.0808 194.571 14.8183 194.571 14.8183L196.342 18.2068V24.7644L197.08 25.2058C197.08 25.2058 197.67 21.5979 199.379 22.3991C201.088 23.2003 199.601 26.451 198.789 28.2933L202.11 33.82C202.11 33.82 203.584 24.7567 205.135 22.4731C206.686 20.1894 208.676 14.8846 204.624 10.7587C200.572 6.63273 197.024 7.95191 197.024 7.95191C197.024 7.95191 180.104 -4.33914 176.489 3.76473Z" fill="#414141" stroke="#414141" stroke-linecap="round" stroke-linejoin="round"/>
<path d="M142.836 101.532C137.178 98.0468 136.996 95.9953 134.557 94.6787C130.661 94.2475 129.539 94.0306 126.826 93.9132C122.711 93.7397 113.797 89.3203 114.265 87.2076C114.755 84.9673 120.179 86.7993 121.755 86.6411C125.488 86.2686 129.327 86.9958 132.74 86.5875C131.557 86.4931 129.585 86.2788 128.341 85.8603C126.893 85.3755 126.747 84.4085 128.012 84.3141C132.229 84.0028 137.009 83.4236 138.997 84.6687C140.915 85.8629 143.868 89.5015 143.868 89.5015C145.51 91.1019 147.046 92.8065 148.467 94.6047C148.467 94.6047 150.225 100.8 142.836 101.532Z" fill="white" stroke="#414141" stroke-linecap="round" stroke-linejoin="round"/>
<path d="M184.72 34.8382L188.894 34.583L188.654 35.7057L185.18 35.8588L184.72 34.8382Z" fill="#414141"/>
<path d="M191.952 40.9521C191.844 41.0185 187.844 42.8301 187.844 42.8301L187.918 41.0823L191.952 40.9521Z" fill="#414141"/>
</svg>
